<svg id="圖層_1" data-name="圖層 1" xmlns="http://www.w3.org/2000/svg" viewBox="0 0 178.06 252.54"><defs><style>.cls-1{fill:#fed142;}.cls-2{fill:#fecf40;}.cls-3{fill:#fecd3c;}.cls-4{fill:#feca3a;}.cls-5{fill:#fef2cf;}.cls-6{fill:#fed445;}.cls-7{fill:#3771a1;}.cls-8{fill:#3774a6;}.cls-9{fill:#fed648;}.cls-10{fill:#3776a9;}.cls-11{fill:#37709f;}.cls-12{fill:#fedb4d;}.cls-13{fill:#3775a9;}.cls-14{fill:#3773a4;}.cls-15{fill:#fece3e;}.cls-16{fill:#3777ab;}.cls-17{fill:#387ab0;}.cls-18{fill:#3778ad;}.cls-19{fill:#fedd50;}.cls-20{fill:#366a95;}.cls-21{fill:#fed547;}.cls-22{fill:#fed749;}.cls-23{fill:#366e9c;}.cls-24{fill:#366d9a;}.cls-25{fill:#366c98;}.cls-26{fill:#fec838;}.cls-27{fill:#fecc3c;}.cls-28{fill:#376f9d;}.cls-29{fill:#fed84a;}</style></defs><title>python</title><path class="cls-1" d="M169.5,78.26a51.43,51.43,0,0,1,4.92,11.95,97.16,97.16,0,0,1,3.31,18.42.87.87,0,0,0,.33.77v.49c-1.19.55-1-.85-1.1-1.67-.37-3.59-1-7.09-1.67-10.57-.47-2.4-.94-2.63-2.17-.82-4.09,6-8.24,12-12.21,18.18-2.77,4.31-5.72,8.38-8.57,12.58-4.34,6.38-8.66,12.79-13,19.17-8.41,12.34-16.68,24.85-25.15,37.11-.67,1-1.85,2.23-1.56,3.29.36,1.28,1.75.39,2.69.54.74.12,1.5-.06,2.25.08.47.08,1.13,0,1,1.14a126.49,126.49,0,0,1-13.35-.06c-3-.2-5.9,0-8.86-.06-.6,0-1.35.27-1.64-.87a2.79,2.79,0,0,1,.67-2.37c2.08-3.09,4.12-6.23,6.23-9.26,4.53-6.47,8.92-13.12,13.38-19.68,8.12-11.92,16.16-24,24.27-35.89Q147,109.39,154.66,98c4.1-6.13,8.34-12.09,12.34-18.35C167.63,78.63,168.3,77.33,169.5,78.26Z" transform="translate(0 -2.37)"/><path class="cls-2" d="M118.59,188.79c-1.72-1-3.53-.19-5.29-.48-.54-.09-1.26.43-1.55-.56-.24-.83.41-1.24.69-1.83a47.7,47.7,0,0,1,4-6.14c4-5.77,8-11.45,11.84-17.33,5.21-7.91,10.55-15.66,15.83-23.47,5.4-8,10.76-16.06,16.23-24,4.33-6.26,8.51-12.72,12.79-19.06,1.29-1.91,2-1.66,2.46.82.67,4,1.62,7.84,1.78,12,0,.67.2,1.09.69,1.16v2c-1.5-.88-2.5,0-3.54,1.62q-12.69,19.1-25.59,37.92c-5.07,7.43-10.07,15-15.13,22.44-2.65,3.9-5.27,7.85-8,11.71-.31.45-.8.92-.58,1.64s.81.49,1.25.51a54.32,54.32,0,0,1,5.56.14c.35.05.89.11.73,1-.07.36-.4.2-.63.24-4,0-7.94,0-11.91,0C119.71,189,119.12,189.27,118.59,188.79Z" transform="translate(0 -2.37)"/><path class="cls-3" d="M132.85,188.79c-2.07-1.06-4.22-.17-6.32-.48-.65-.1-1.52.54-1.9-.57s.43-1.9.93-2.63c4.47-6.53,9-13,13.41-19.58,5.31-8,10.71-15.87,16.06-23.8s10.59-15.8,15.95-23.61c1.32-1.92,2.64-3.89,3.87-6,1.09-1.85,2.05-2.12,3.21-.3V131.1c-3.47,6-7.43,11.25-11.18,16.82-4.43,6.58-8.9,13.14-13.35,19.69-4.25,6.27-8.59,12.41-12.68,18.88a1.66,1.66,0,0,0-.3,1.17c2.26.12,4.55,0,6.83.06a3,3,0,0,1,1.88.34.6.6,0,0,1,.26.75c-.14.35-.41.21-.63.25-4.79,0-9.57,0-14.35,0C134,189,133.38,189.27,132.85,188.79Z" transform="translate(0 -2.37)"/><path class="cls-4" d="M149.55,188.79c-1.73-1-3.53-.27-5.29-.45-1.15-.11-2.31,0-3.47,0-.38,0-.88.26-1.11-.35s.24-1,.5-1.39c1.44-2.12,2.83-4.31,4.25-6.45,4.6-6.92,9.4-13.57,14-20.48,5.35-8,10.68-16.09,16.19-23.92,1.12-1.59,1.76-3.88,3.44-4.62v16.28c-.69,3.8-1.36,7.61-2.07,11.41-.16.84-.45,1.64-.68,2.45-.64-.85-.32-1.84-.15-2.75a53.7,53.7,0,0,0,1-6.6c-8.06,11.65-16.08,23.36-24.19,35.61,1.65.43,2.8-.24,4-.46.72-.14,1.48-.63,2.1.37a9.06,9.06,0,0,1-4.94,1.43A5.51,5.51,0,0,1,149.55,188.79Z" transform="translate(0 -2.37)"/><path class="cls-5" d="M92.52,254.48c0,.14,0,.29,0,.43H87.64c0-.14,0-.29,0-.43A3.83,3.83,0,0,1,92.52,254.48Z" transform="translate(0 -2.37)"/><path class="cls-6" d="M149.55,188.79l3.52.05c-.74.73-1.57.41-2.36.41-19.83,0-39.65,0-59.47-.05-1.48,0-2,.42-1.95,2.68.11,5.83,0,5.83,4.21,5.83q18.6,0,37.21,0c.57,0,1.27-.52,1.73.46a2.15,2.15,0,0,1-2.1.76c-2.29,0-4.59.07-6.88,0-3.79,0-7.58.08-11.37,0-2.52-.09-5,.06-7.56,0-4.11-.25-8.22,0-12.33-.11a4.08,4.08,0,0,1-1.56,0c-2.26-1-3.74.6-5,2.93-2.87,5.18-6.35,9.55-9.53,14.31-4.38,6.55-8.68,13.22-13.26,19.49-1.59,2.17-2.81,4.83-4.51,6.83-.9,1.06-.43,2.36-.59,3.56a25.77,25.77,0,0,1-9-11.69,3.27,3.27,0,0,1,.51-3.38C56.65,220.5,63.66,209.54,70.94,199c4.37-6.35,8.63-12.83,13-19.23q9.27-13.66,18.51-27.38c4.45-6.57,9-13.07,13.27-19.82.35-.35.81,0,1.15-.39,2.22-.81,4.51-1.08,6.67-2.25,7.74-4.18,11.92-12.55,13.87-23.57.14-.79.28-1.58.41-2.37a15.34,15.34,0,0,0,.57-2.56c6.86-9.28,13.08-19.43,19.78-28.93.53-.75,1.05-1.52,1.6-2.25s.92-1.27,1.63-1.25c3.33,2,6,5.2,8.13,9.3-2.39.67-3.34,3.81-4.93,5.83-.34.43-.55,1.06-.87,1.52-4.72,6.88-9.52,13.66-14.17,20.65-5.4,8.12-10.88,16.11-16.32,24.17l-15.35,22.75-16.32,24.17c-2,2.9-3.93,5.79-5.87,8.71-.31.47-.79.88-.64,1.63s.75.63,1.18.62c7.46-.19,14.91.9,22.38.48h31Z" transform="translate(0 -2.37)"/><path class="cls-7" d="M101.2,124.61c-12.1,0-24.21-.06-36.31.11-12.91.18-21.65,10-23.94,28.82a68.41,68.41,0,0,0-.39,8.08c0,8.87,0,17.74,0,26.62a4.49,4.49,0,0,1-.2,2.36,1.7,1.7,0,0,1-.34-.7c-.34-2.39.14-4.86-.39-7.22-.26-3.47-.13-6.94-.1-10.41.2-5.63-.19-11.27.29-16.88-.47-.1-.65.26-.85.53-7,9.35-13.77,19-20.57,28.63a6.38,6.38,0,0,0-1,3.46,18.86,18.86,0,0,1-5.94-5.93,4.5,4.5,0,0,0-1-1.94C9,178,8.94,178,10.45,175.87c18.13-25.73,36.18-51.58,54.45-77.1,7.18-10,14.35-20,21.43-30.19a.92.92,0,0,1,.45-.34c.77,0,1.53,0,2.29,0,1-.39.61-1.58.64-2.45a5.1,5.1,0,0,1,.8-3.09c10.62-14.82,21.09-29.84,31.64-44.75.41-.58.82-1.17,1.24-1.73.93-1.25,1.82-1.23,2.73.06s1.77,2.59,2.7,3.81a26.92,26.92,0,0,1,3.61,12.36c-1.25-.5-1-2.18-1.3-3.4-.55-2.44-.83-2.59-2.15-.85-.29.4-.57.81-.86,1.22Q96,75,63.82,120.6a7.23,7.23,0,0,0-1.56,2.88,60.15,60.15,0,0,0,7.94,0c4-.13,7.94-.09,11.9,0,4.24,0,8.47-.11,12.7,0,2,.13,4.13-.42,6.17.38A.67.67,0,0,1,101.2,124.61Z" transform="translate(0 -2.37)"/><path class="cls-8" d="M5.53,170.16a37,37,0,0,1-2.38-8.48c-.21-2.19-.68-4.29-1.09-6.41a4,4,0,0,1,.56-3.34C9.79,142,16.59,131.59,24,122c.3-.39.59-.79.88-1.19C37,103.64,49.16,86.54,61.2,69.26c.37-.53.69-1.14,1.3-1,3.18,0,6.36,0,9.53,0h1.7c1,.46.48,1.26.18,1.9a15.42,15.42,0,0,1-1.54,2.33q-31.65,44.9-63.3,89.78C7.47,164.49,5.52,166.45,5.53,170.16Z" transform="translate(0 -2.37)"/><path class="cls-9" d="M115.81,132.58a2.54,2.54,0,0,1-.53,1.5c-1.91,2.85-3.78,5.74-5.71,8.57-4.26,6.25-8.61,12.37-12.8,18.71-5.26,8-10.63,15.76-15.94,23.63s-10.62,15.75-16,23.6S54.52,224.48,49,231.89c-.72,1,.25,1.68-.28,2.31a12,12,0,0,1-1.38-4c-1.09-4.16-.86-8.5-.87-12.81.15-1.28,1-1.76,1.54-2.55,7.07-10.07,13.87-20.52,20.86-30.7,4.44-6.47,8.8-13.07,13.2-19.58,6.14-9.07,12.37-18,18.34-27.3,2.34-3.63,4.57-5.32,7.9-4.76a9,9,0,0,0,4.15-.2C113.55,132.48,114.7,132.06,115.81,132.58Z" transform="translate(0 -2.37)"/><path class="cls-10" d="M61.9,68.46a3.43,3.43,0,0,1-1,2.18C48.85,87.71,37,105,24.74,121.75c-7.22,9.94-14.22,20.18-21.48,30.05a4.81,4.81,0,0,0-.83,4.29c.37,1.81,1,3.6.72,5.59a86,86,0,0,1-2.4-16.29c.2-2.3-.24-4.54-.28-6.82a4.5,4.5,0,0,1,.73-2.86L2.43,134q22.11-31.37,44.25-62.7c.78-1.11,1.25-2.85,2.59-3,2.82,0,5.63,0,8.45,0C59.11,68.36,60.52,67.93,61.9,68.46Z" transform="translate(0 -2.37)"/><path class="cls-11" d="M69.55,124.2c-2.26,0-4.51,0-6.77,0-.38,0-.86.21-1.09-.45s.2-1.2.5-1.67.48-.7.73-1Q95.7,74.54,128.48,28c.29-.4.57-.82.86-1.21,1-1.27,1.58-1,2,.77.35,1.62.28,3.44,1.11,4.83q0,24.18,0,48.36c-.24.11-.41,0-.53-.31-.51-2.38-.2-4.81-.27-7.22,0-5.9-.06-11.79,0-17.68.19-4.84.06-9.69.07-14.54,0-.9,0-2-.64-2.4s-1.09.62-1.56,1.14c-.19.2,0-.06-.13.17-19.45,26.93-38.6,54.28-57.84,81.52A12.79,12.79,0,0,1,69.55,124.2Z" transform="translate(0 -2.37)"/><path class="cls-12" d="M46.6,216.93a74.76,74.76,0,0,0,.7,13.31,14.38,14.38,0,0,1-1-5.59c0-12.28,0-24.57,0-36.85.29-5.32.1-10.65.1-16a7.42,7.42,0,0,1,1.31-4.58c6.54-9.39,12.91-19,19.37-28.54,5.09-7.5,2.76-5.84,10.21-6.13,7.11-.29,14.22-.25,21.33-.2.17,1.81-.88,1.26-1.42,1.29-2.55.11-5.09.12-7.64,0-1.38-.06-2.37.57-3.34,2-6.43,9.44-12.77,19-19.22,28.39-5.11,7.47-10.07,15.16-15.25,22.54-1.38,2-2.51,4.3-4,6.12a4.76,4.76,0,0,0-.69,3.17q0,9,0,18A5.5,5.5,0,0,1,46.6,216.93Z" transform="translate(0 -2.37)"/><path class="cls-13" d="M98.06,2.94c6.33.53,12.54,1.83,18.45,5.34l-.18.25c-.78.51-1.49,0-2.18-.33a33.12,33.12,0,0,0-5.38-2,2.1,2.1,0,0,0-2.53,1c-.38.52-.76,1-1.13,1.54Q88.6,32.19,72.05,55.59c-.82,1.16-1.27,3-2.69,3.25-1.8,0-3.6,0-5.4,0-2.13,0-4.26,0-6.39,0-1.13-.2-.73-1.13-.39-1.88A16.73,16.73,0,0,1,59,54.27c2.26-3.19,4.51-6.37,6.81-9.51.91-1.24,2.25-1.34,3-2.74,1-1.59,2-3.1,2.92-4.72a6.77,6.77,0,0,0,.84-3.67,7.57,7.57,0,0,1,1.61-4.93Q82,17.71,89.75,6.6c2-2.79,4.06-4.54,7-3.52A1.48,1.48,0,0,0,98.06,2.94Z" transform="translate(0 -2.37)"/><path class="cls-14" d="M86.59,68.46a3.42,3.42,0,0,1-1,2.18c-6,8.49-11.86,17.1-17.95,25.42-19.18,26.21-37.7,53.37-56.68,79.86-1.22,1.71-1.65,2.9,0,4.45a2,2,0,0,1,.53,1.71,32,32,0,0,1-4.72-8.59c.17-2.15,1.28-3.45,2.24-4.82,4.89-7,9.82-14,14.74-20.94Q49.54,111,75.41,74.34c1.31-1.87,2.83-3.39,4.12-5.29a1.59,1.59,0,0,1,1.4-.83C82.82,68.37,84.72,67.92,86.59,68.46Z" transform="translate(0 -2.37)"/><path class="cls-1" d="M57.73,245.89c-1.31-1.48-.68-2.6.22-3.92q9.12-13.32,18.17-26.73c3.63-5.38,7.2-10.85,10.8-16.28.7-1.06,1.37-2,2.5-.9.32.32.9.12,1.36.12H104c-.16,2.11-1.47,2.21-2.44,2.35a5.07,5.07,0,0,0-3.41,2.57c-6.11,9.08-12.26,18.1-18.36,27.2-3.7,5.53-7.61,10.78-11.12,16.56-.66,1.08-.94,1.64.07,2.61A4.59,4.59,0,0,0,71,251c1.83.29,3.59,1.26,5.47,1.27,1.56.26,3.14.46,4.71.65a4.17,4.17,0,0,0,1.93.33c.52.17,1.21-.08,1.35,1.07C75.2,253.87,66.11,252.13,57.73,245.89Z" transform="translate(0 -2.37)"/><path class="cls-14" d="M128.82,20.07c-1.15-.59-1.78-2.05-2.57-3.2-1-1.43-1.76-1.51-2.76,0C121.36,20,119.16,23,117,26.09Q103.85,44.71,90.66,63.28a3.86,3.86,0,0,0-.59,2.38c0,1,.21,2.21-.7,2.8a.3.3,0,0,1-.12-.33q.06-.18.12-.18V59.11c-2.24-.6-4.5-.12-6.75-.27-.73,0-.73-.55-.54-1.27a6.85,6.85,0,0,1,1.25-2.33c10.32-14.85,21.09-29.06,31.36-44A5.59,5.59,0,0,1,117.31,9a12.14,12.14,0,0,1,1.69.76A24.81,24.81,0,0,1,128.82,20.07Z" transform="translate(0 -2.37)"/><path class="cls-14" d="M80.33,68.46c-1,2.36-2.78,3.66-4.12,5.57Q43,121.16,9.8,168.22a46.16,46.16,0,0,0-3.1,5.27,11,11,0,0,1-1.17-3.33c-.7-2.6.29-4.22,1.51-5.94q32.85-46.49,65.63-93.06c.56-.78,1.35-1.37,1.4-2.7A17.33,17.33,0,0,1,80.33,68.46Z" transform="translate(0 -2.37)"/><path class="cls-15" d="M84.49,254.33c-.39-.62-.91-.34-1.38-.42-.52-.58-1.21.1-1.73-.48-1.76.28-3.48-.41-5.22-.49a2.62,2.62,0,0,1,.38-3c1.77-2.37,3.21-5.18,5-7.58,4.45-6.12,8.6-12.65,12.92-18.95,5.21-7.59,10.25-15.42,15.53-22.9a9.4,9.4,0,0,1,2-2.28h11.48a1.39,1.39,0,0,1-.64,1.52c-3.7,2.94-5.9,8.11-9,12a5.74,5.74,0,0,1,3.87,1.42c.49.39,1.25.69.87,1.94a.78.78,0,0,1-1-.05c-2.67-2.08-5.27-1.46-7.85.34a2.65,2.65,0,0,0-1.91,2c-.08.19-.17.37-.26.55-.83,1.39-1,3.28-1.7,4.75-5.79,8.47-11.63,16.87-17.25,25.57-.74,1.15-1.55,2.2-2.29,3.36-.22.35-.56.72-.38,1.26s.59.42.93.42c2.25,0,4.51,0,6.76.05.62,0,1.43-.35,1.7,1l-2.75.14h-4.9Z" transform="translate(0 -2.37)"/><path class="cls-16" d="M48.68,68.46c0,1.24-.76,1.8-1.27,2.53Q24.78,103.12,2.09,135.2a7,7,0,0,0-1.22,5.9,7.83,7.83,0,0,1-.12,4.29,130.71,130.71,0,0,1-.7-18.25c.17-.4.11-.89.28-1.29a21.39,21.39,0,0,1,2.53-4.34Q20.67,96.27,38.49,71.05c.73-1,1.16-2.76,2.47-2.83C43.54,68.36,46.12,67.93,48.68,68.46Z" transform="translate(0 -2.37)"/><path class="cls-17" d="M57,58.6h7c.11.09.15.18.11.27S64,59,64,59c-5.56,0-11.12,0-16.68.1-.84,0-1.08-.39-1.07-1.55,0-9.77-.12-19.54,0-29.31.1-6.44,2.93-10.86,6.32-14.54C57,8.93,62.17,6.59,67.5,5A62.6,62.6,0,0,1,88,2.45c-.14,1.19-.84.95-1.36,1-3.4.44-6.81.59-10.22,1A5.53,5.53,0,0,0,72.12,7.2c-2.61,4-5.38,7.7-8.08,11.55a3.6,3.6,0,0,0-1,3.16c0,.08,0,.2-.06.23-2.37,1.77-4.09,4.55-5.7,7.49-.67-.44-1.18-.16-1.69.55-2.62,3.69-5.2,7.44-7.85,11.08a4.75,4.75,0,0,0-.73,2.9c0,3.85,0,7.69,0,11.53,0,1.49.27,2.41,1.46,2.21,2.2-.14,4.39-.06,6.58-.06A2.17,2.17,0,0,1,57,58.6Z" transform="translate(0 -2.37)"/><path class="cls-18" d="M62.94,22a1.61,1.61,0,0,1-.21-2.36c3.46-4.93,6.88-9.91,10.35-14.82a2.74,2.74,0,0,1,2.42-.92c2.25-.1,4.45-.69,6.71-.65A33.61,33.61,0,0,0,88,2.45a41.14,41.14,0,0,1,10.09.49c-.73.78-1.59.47-2.35.37-2.09-.26-3.68,1-5.08,3Q82.34,18,74,29.76a5.32,5.32,0,0,0-1,3.45c0,1.7,0,3.45-1.16,4.6a2.73,2.73,0,0,1-.11-1.42c.78-7.67-.4-10.77-5.3-13.85a2.12,2.12,0,0,0-3.06-.33A.37.37,0,0,1,62.94,22Z" transform="translate(0 -2.37)"/><path class="cls-19" d="M98.76,132.59c-5.33,0-10.67-.27-16,.09-3.47.24-6.93.29-10.39.42-1.88.07-2.6,2.51-3.69,4.09-.55.79-1,1.74-1.6,2.56-4.6,6.7-9.29,13.29-13.78,20.15-1.93,2.94-3.88,5.85-5.88,8.69a4.86,4.86,0,0,0-.86,3.06c0,4.6,0,9.2,0,13.8a4.06,4.06,0,0,1-.29,2.35c0-8.71-.35-17.45.06-26.11.71-15,6.81-24.89,18.25-28.55a24.88,24.88,0,0,1,7.74-1c14.83,0,29.66,0,44.49,0-.26.53-.66.43-1,.44l-3.83,0c-.72.45-1.47.16-2.21.22-2.45.18-4.91-.25-7.37.45C101.23,133.6,99.88,133.83,98.76,132.59Z" transform="translate(0 -2.37)"/><path class="cls-11" d="M17.36,188a2.82,2.82,0,0,1,.35-3.38c5.08-7.17,10.05-14.49,15.25-21.48,2-2.76,4.06-5.56,6.12-8.3.28-.37.51-1.07,1-.76s.32,1,.25,1.54c-.7,5.29-.15,10.62-.32,15.92a12.48,12.48,0,0,1-1.48,2.7c-3.37,4.74-6.71,9.5-10.07,14.25.41.86,1.9.25,1.46,2.2C25.6,191,21.3,191.16,17.36,188Z" transform="translate(0 -2.37)"/><path class="cls-20" d="M108.86,124.61h-.37c-.45-.38-1,0-1.45-.35a2.54,2.54,0,0,1,.71-2.52c6.62-9.17,12.88-18.84,19.77-27.61,1-1.26,1.84-2.73,2.86-3.93.58-.68,1.26-1.72,1.94-.09a69.23,69.23,0,0,1-.57,10.4c-1.54,11.09-6.5,17.85-13.73,21.66-1.27.67-2.55,1.48-4,1.45C112.33,124.06,110.56,123.91,108.86,124.61Z" transform="translate(0 -2.37)"/><path class="cls-21" d="M161.37,69c-2.83,3.73-5.53,7.64-8.15,11.68-4.41,6.81-9.08,13.31-13.63,19.94-.33.48-.66.94-1.18.93,0-5.63,0-11.26,0-16.88a2.79,2.79,0,0,1,.66-1.67c2.66-4,5.25-8.06,8.06-11.84a2.47,2.47,0,0,0,.36-.53c1.82-4.67,4.82-4.55,7.93-3.93a.83.83,0,0,0,.67-.09A9.79,9.79,0,0,1,161.37,69Z" transform="translate(0 -2.37)"/><path class="cls-17" d="M.34,126.17l-.29,1c0-13.45,1.09-26.58,5.5-38.75C9.48,77.56,15.48,70.49,24,68.2c2.12-.56,4.27-.26,6.41-.24,9.09.06,18.18.06,27.28.09.11.09.15.18.11.28s-.08.13-.12.13H40.34c-.63.82-1.41.64-2.15.64-2.78,0-5.56.06-8.33,0A3.25,3.25,0,0,0,27,70.78c-6.21,9-12.49,17.79-18.75,26.66-1.43,2-3.07,3.73-4.47,5.82a9.86,9.86,0,0,0-1.64,4.47c-.7,5.25-.9,10.57-1.28,15.86A6.8,6.8,0,0,1,.34,126.17Z" transform="translate(0 -2.37)"/><path class="cls-22" d="M156.13,66.57c-1.56.91-3.19.26-4.78.38a1.8,1.8,0,0,0-1.81,1.39,14.08,14.08,0,0,1-1.7,2.77c-2.84,4.18-5.67,8.39-8.58,12.49a3.91,3.91,0,0,0-.49,2.46c-.11,5.15.26,10.32-.36,15.45,0,.92.12,1.9-.62,2.44.74-11.62.23-23.27.32-34.91,0-2.31.39-3.11,2.1-3.05,4.46.17,8.91.07,13.37.05A4.58,4.58,0,0,1,156.13,66.57Z" transform="translate(0 -2.37)"/><path class="cls-23" d="M29.9,190.7c-.3-1.64-1.35-1.19-1.86-1.41l12-17.74V182.9c.46,2.42-.1,4.92.29,7.35,0,.12,0,.24,0,.35A80.68,80.68,0,0,1,29.9,190.7Z" transform="translate(0 -2.37)"/><path class="cls-18" d="M64,59V58.6H69.9a2.37,2.37,0,0,1,1.27-.71,97.67,97.67,0,0,1,9.83,0,1.28,1.28,0,0,1,1.07.69c1.9,0,3.8,0,5.69,0,.55,0,1.17-.28,1.61.5Z" transform="translate(0 -2.37)"/><path class="cls-10" d="M80.33,68.46h-8c-.11-.09-.15-.18-.11-.27s.07-.14.11-.14l17-.1v.51h-9Z" transform="translate(0 -2.37)"/><path class="cls-24" d="M131.75,100.51c-.05-3.63.67-7.2.4-10.84a15.87,15.87,0,0,1,0-8.88h.29c0,5.88.34,11.76-.31,17.61C132.05,99.12,131.88,99.81,131.75,100.51Z" transform="translate(0 -2.37)"/><path class="cls-18" d="M72.33,68.05v.41H57.72c0-.14,0-.27,0-.41Z" transform="translate(0 -2.37)"/><path class="cls-25" d="M108.86,124.61c1.63-1.48,3.44-.91,5.2-1A10.34,10.34,0,0,1,108.86,124.61Z" transform="translate(0 -2.37)"/><path class="cls-24" d="M107.11,124.2c.47.06,1-.21,1.38.41H101.2v-.41A5.23,5.23,0,0,1,107.11,124.2Z" transform="translate(0 -2.37)"/><path class="cls-13" d="M119,9.73l-1.8-.46c-.39-.09-.79-.15-.71-.95l0,0A4.41,4.41,0,0,1,119,9.73Z" transform="translate(0 -2.37)"/><path class="cls-4" d="M115.88,250a33.12,33.12,0,0,1-11.57,3.33c-1.66-.13-3.3.4-5,.47-.57,0-1.15.08-1.72.09a1.31,1.31,0,0,1-1.44-1,2.75,2.75,0,0,1,.35-2.26,8.55,8.55,0,0,1,.46-.74c3.39-4.58,6.53-9.5,9.72-14.34,1.31-2,2.56-2.71,4.39-1.29a3.6,3.6,0,0,0,4.49.26,12.51,12.51,0,0,1,2.71-1.8c.85-.19,1.35-1,1.74-2a5.3,5.3,0,0,1,.27-.59,13.32,13.32,0,0,0,1.33-6.22,5,5,0,0,1,.79-3.13c2.76-3.82,5.12-8.19,8-11.83.5-.62,1.07-2,1.88-.43v7.2a4.13,4.13,0,0,1-1.1,2.65c-6.64,9.56-13,19.51-19.72,29a30.45,30.45,0,0,0-1.91,3.4c1.49-.32,2.75-.71,4-1C114.38,249.47,115.19,249,115.88,250Z" transform="translate(0 -2.37)"/><path class="cls-26" d="M115.88,250c-2.34-.39-4.53,1.41-7.15,1.17.86-1.52,1.5-2.85,2.27-4,4.66-6.83,9.41-13.54,14-20.45,2.34-3.5,4.55-7.17,7.14-10.31.37,3.29.07,6.61.17,9.91a14.69,14.69,0,0,0,.12,2.89,20.91,20.91,0,0,1-4.84,12.27A25.61,25.61,0,0,1,115.88,250Z" transform="translate(0 -2.37)"/><path class="cls-27" d="M115.81,234.8a2.52,2.52,0,0,1-3.94.42c-2.7-2.3-4.27-.5-5.89,2.27-2.74,4.67-5.87,8.82-8.88,13.13-.4.57-1,1.11-.63,2.07s1,.76,1.55.73c1.49-.06,3,.21,4.47-.41a1.42,1.42,0,0,1,1.82.34,31.48,31.48,0,0,1-9,1c-2.49-.91-5-.14-7.54-.44-.88-.1-2.15.73-2.55-.6s.81-2.15,1.42-3.07q9-13.46,18-26.85a5.35,5.35,0,0,1,1.16-1c.92,1.39,0,3.54,1,4.9,1.33,3.74,3.25,6.38,6.3,7.17C114,234.67,115,233.62,115.81,234.8Z" transform="translate(0 -2.37)"/><path class="cls-26" d="M158,187.41c-1.82-.36-3.48,1.1-5.29.9-.43-.05-1,.35-1.24-.43s.4-1.1.7-1.55c5.46-8.36,11.07-16.51,16.64-24.72,2.12-3.12,4.22-6.28,6.36-9.39.43-.63.83-1.39,1.63-1.54-.13,3.65-1.41,6.95-1.5,10.56v0c-.59,1.95-1.14,3.93-1.78,5.85-2,5.09-3.9,10.25-7.22,14a52.09,52.09,0,0,1-4.86,4.37,13.46,13.46,0,0,0-2.53,1.46Z" transform="translate(0 -2.37)"/><path class="cls-27" d="M132.44,229.24c-.64-2.85-.14-5.78-.28-8.66-.06-1.38,0-2.76,0-4.14v-8.39c-.84-2.51-.35-5.05-.28-7.85-3.65,6-7.87,11.15-11.39,17.29-1.18.07-1.71-.9-1.92-2.39-1.31-2.55-3.31-2.51-5.23-2.7a3.09,3.09,0,0,1,.89-2.34c2.17-3.17,4.36-6.31,6.51-9.5.78-1.14,2.18-.75,2.73-2.37h9Z" transform="translate(0 -2.37)"/><path class="cls-4" d="M173.54,167.06a18.4,18.4,0,0,1,1.78-5.85A17.6,17.6,0,0,1,173.54,167.06Z" transform="translate(0 -2.37)"/><path class="cls-4" d="M158.93,186.87a2.84,2.84,0,0,1,2.53-1.46A4.44,4.44,0,0,1,158.93,186.87Z" transform="translate(0 -2.37)"/><path class="cls-2" d="M112,198.19c-.25.44-.48.91-.76,1.32-4.88,7.09-9.83,14.08-14.62,21.28q-7.89,11.88-15.9,23.58c-1.32,1.93-2.53,4-3.9,5.9a3.92,3.92,0,0,0-.64,2.67c-3.15-.92-6.54-.74-9.1-4.48,1.25-2.18,2.82-4.32,4.28-6.58,3.73-5.8,7.69-11.31,11.53-17q7.62-11.22,15.19-22.52c.89-1.33,1.75-2.4,3.24-2.34a2.72,2.72,0,0,0,2.68-1.85Z" transform="translate(0 -2.37)"/><path class="cls-28" d="M69.55,124.2A8.58,8.58,0,0,1,71,121.44c14.55-20.63,29-41.39,43.69-61.81,5-7,9.94-14,15-20.89.43-.59.84-1.75,1.54-1.12a3.63,3.63,0,0,1,1,2.73c0,4.77,0,9.53,0,14.3a15.33,15.33,0,0,0-3.22,3.66q-21.54,30.59-43.1,61.15c-1.19,1.69-2.48,3.21-3.76,4.74Z" transform="translate(0 -2.37)"/><path class="cls-24" d="M82.07,124.2c.45-2.17,2-3,2.94-4.37q22.3-31.74,44.65-63.39c.7-1,1.34-2.1,2.49-1.79V73.39c-1.14-.13-1.89.76-2.65,1.85Q112.87,98.9,96.2,122.51c-.41.58-.84,1.13-1.26,1.69Z" transform="translate(0 -2.37)"/><path class="cls-25" d="M94.94,124.2A3.42,3.42,0,0,1,96,122q17-24.09,33.94-48.18c.74-1.06,1.35-1.77,2.25-.45V89.67c-.8-.17-1.25.59-1.77,1.27-6.79,8.92-13.26,18.3-19.77,27.62-1.24,1.77-2.85,3.11-3.5,5.64H94.94Z" transform="translate(0 -2.37)"/><path class="cls-11" d="M40.28,190.25c-.64-2.41-.13-4.91-.29-7.35C40.73,185.29,40.19,187.8,40.28,190.25Z" transform="translate(0 -2.37)"/><path class="cls-29" d="M98.76,132.59H112c-2,1-4,.54-6,.38s-3.13.94-4.1,2.88a34.42,34.42,0,0,1-2.67,4.19c-4.19,6.13-8.46,12.15-12.57,18.38-5.22,7.91-10.55,15.65-15.83,23.47q-8.11,12-16.2,24c-2.15,3.2-4.34,6.37-6.5,9.56-.43.64-.79,1.46-1.53,1.46,0-7.23,0-14.47,0-21.7a5,5,0,0,1,1-3.16c6.22-9.15,12.36-18.4,18.52-27.62l.49-.71c4.73-6.88,9.53-13.65,14.16-20.67,1.93-2.93,3.94-5.77,5.83-8.76a2.17,2.17,0,0,1,2.08-1.25c2.84.05,5.68,0,8.52,0C97.69,133.06,98.3,133.34,98.76,132.59Z" transform="translate(0 -2.37)"/><path class="cls-8" d="M116.49,8.32l.71.95a21,21,0,0,0-3.77,4.61c-5,7.13-9.92,14.46-15.12,21.32-5,6.65-9.76,13.71-14.7,20.47a8.43,8.43,0,0,0-1.54,2.93H69.9a9.34,9.34,0,0,1,1.66-3.11c10.78-15.28,21.68-30.4,32.26-46,2.71-4,5.21-4.47,8.51-2.82C113.68,7.38,115,8.32,116.49,8.32Z" transform="translate(0 -2.37)"/><path class="cls-16" d="M60.61,42.27c2.87,2.1,5.72,2.16,8.56-.13-.11.28-.17.72-.33.82-4,2.58-6.46,7.68-9.55,11.75-.85,1.13-2,2-2.26,3.89H48a3.11,3.11,0,0,1,.83-2.73c3.06-4.42,6.18-8.75,9.24-13.16C58.88,41.52,59.66,41.3,60.61,42.27Z" transform="translate(0 -2.37)"/><path class="cls-2" d="M81.38,253.43c.58.12,1.24-.32,1.73.48C82.52,253.81,81.86,254.25,81.38,253.43Z" transform="translate(0 -2.37)"/><path class="cls-2" d="M107.52,217.46a17.91,17.91,0,0,0-1.07,10.31c-1.23-1.54-.55-3.59-.73-5.41C106.13,220.58,106.24,218.59,107.52,217.46Z" transform="translate(0 -2.37)"/><path class="cls-2" d="M109.29,215l-1.79,2.49C107.63,216,108.22,215.16,109.29,215Z" transform="translate(0 -2.37)"/><path class="cls-18" d="M.34,126.17c.07-6.7.71-13.33,1.42-20a5.88,5.88,0,0,1,1.39-3c7.92-10.35,15.39-21.35,23-32.19,1.34-1.92,2.61-2.72,4.49-2.6,3.23.22,6.48.06,9.73.06A4.18,4.18,0,0,1,39.06,71Q20.94,96.73,2.78,122.4C1.92,123.61,1.42,125.27.34,126.17Z" transform="translate(0 -2.37)"/><path class="cls-18" d="M60.61,42.27c-1-.46-1.67-.05-2.4,1-2.93,4.3-5.94,8.5-8.93,12.71A8.27,8.27,0,0,0,48,58.6c-1,.18-1.43-.39-1.41-1.93.05-4.5,0-9,0-13.51a3,3,0,0,1,.49-2c2.79-3.81,5.52-7.69,8.27-11.55.24-.34.51-.66.77-1,.84-1,1-.09,1.22.82l-.06.5a11.31,11.31,0,0,0,.54,7.85A20.3,20.3,0,0,0,60.61,42.27Z" transform="translate(0 -2.37)"/><path class="cls-17" d="M66.41,22H63.29C64.33,20.44,65.37,20.72,66.41,22Z" transform="translate(0 -2.37)"/><path class="cls-4" d="M120.26,230.69a16.41,16.41,0,0,0,0-13.14,18.75,18.75,0,0,1,2.54-4.92c2.63-3.69,5.3-7.32,7.68-11.34.36-.61.81-1.49,1.41-1.15s.22,1.32.23,2c0,2,0,3.94,0,5.91-2.33,1.67-3.82,4.69-5.53,7.28-1.15,1.72-2.25,3.53-3.45,5.17a5.85,5.85,0,0,0-1.13,3.89C122.08,226.81,121.72,229.09,120.26,230.69Z" transform="translate(0 -2.37)"/><path class="cls-4" d="M118.46,233.14c.61-.82,1.21-1.65,1.82-2.48C120.16,232.2,119.54,233,118.46,233.14Z" transform="translate(0 -2.37)"/><path class="cls-17" d="M57.83,37.84c-1.37-2.3-1.62-6-.54-7.85A17.3,17.3,0,0,0,57.83,37.84Z" transform="translate(0 -2.37)"/></svg>