<svg id="圖層_1" data-name="圖層 1" xmlns="http://www.w3.org/2000/svg" xmlns:xlink="http://www.w3.org/1999/xlink" viewBox="0 0 473.51 184.3"><defs><style>.cls-1,.cls-2,.cls-3,.cls-32,.cls-5,.cls-7,.cls-9{fill:none;}.cls-2{clip-rule:evenodd;}.cls-3,.cls-4,.cls-6{fill-rule:evenodd;}.cls-4{fill:#fa6801;}.cls-32,.cls-5,.cls-6{stroke:red;}.cls-32,.cls-5,.cls-6,.cls-7,.cls-8,.cls-9{stroke-linecap:square;stroke-miterlimit:10;}.cls-5{stroke-width:1.64px;}.cls-6{fill:red;stroke-width:0;}.cls-7,.cls-8,.cls-9{stroke:#000;}.cls-9{stroke-width:0.08px;}.cls-10{font-size:9.09px;}.cls-10,.cls-33{font-family:ArialMT, Arial;}.cls-11{letter-spacing:0em;}.cls-12{letter-spacing:0em;}.cls-13{clip-path:url(#clip-path);}.cls-14,.cls-25{font-size:14.04px;font-family:TimesNewRomanPSMT, Times New Roman;}.cls-15,.cls-25{letter-spacing:0em;}.cls-16{letter-spacing:-0.09em;}.cls-17{clip-path:url(#clip-path-2);}.cls-18{letter-spacing:-0.02em;}.cls-19{letter-spacing:0em;}.cls-20{letter-spacing:0em;}.cls-21{letter-spacing:0em;}.cls-22{letter-spacing:-0.02em;}.cls-23{letter-spacing:0em;}.cls-24{clip-path:url(#clip-path-6);}.cls-26{clip-path:url(#clip-path-7);}.cls-27{clip-path:url(#clip-path-9);}.cls-28{clip-path:url(#clip-path-10);}.cls-29{letter-spacing:0em;}.cls-30{clip-path:url(#clip-path-16);}.cls-31{clip-path:url(#clip-path-17);}.cls-32{stroke-width:1.64px;}.cls-33{font-size:9.12px;fill:#fff;}</style><clipPath id="clip-path" transform="translate(-12.56 -15.95)"><rect class="cls-1" x="6.45" y="26.54" width="353.28" height="181.08"/></clipPath><clipPath id="clip-path-2" transform="translate(-12.56 -15.95)"><polygon class="cls-2" points="6.45 207.62 359.73 207.62 359.73 26.54 6.45 26.54 6.45 207.62 6.45 207.62"/></clipPath><clipPath id="clip-path-6" transform="translate(-12.56 -15.95)"><rect class="cls-1" x="393.3" y="23.32" width="43.56" height="29.52"/></clipPath><clipPath id="clip-path-7" transform="translate(-12.56 -15.95)"><polygon class="cls-2" points="393.3 52.84 436.86 52.84 436.86 23.32 393.3 23.32 393.3 52.84 393.3 52.84"/></clipPath><clipPath id="clip-path-9" transform="translate(-12.56 -15.95)"><rect class="cls-1" x="393.62" y="38.32" width="100.92" height="29.52"/></clipPath><clipPath id="clip-path-10" transform="translate(-12.56 -15.95)"><polygon class="cls-2" points="393.63 67.84 494.55 67.84 494.55 38.32 393.63 38.32 393.63 67.84 393.63 67.84"/></clipPath><clipPath id="clip-path-16" transform="translate(-12.56 -15.95)"><polygon class="cls-2" points="372.99 32.92 393.15 32.92 393.15 55.24 372.99 55.24 372.99 32.92 372.99 32.92"/></clipPath><clipPath id="clip-path-17" transform="translate(-12.56 -15.95)"><polygon class="cls-1" points="372.99 55.24 393.15 55.24 393.15 32.92 372.99 32.92 372.99 55.24 372.99 55.24"/></clipPath></defs><title>gpa</title><polygon class="cls-4" points="61.85 157.01 61.85 112.73 74.94 112.73 74.94 157.01 61.85 157.01 61.85 157.01"/><polygon class="cls-4" points="96.29 157.01 96.29 100.04 109.3 100.04 109.3 157.01 96.29 157.01 96.29 157.01"/><polygon class="cls-4" points="130.65 157.01 130.65 74.74 143.74 74.74 143.74 157.01 130.65 157.01 130.65 157.01"/><polygon class="cls-4" points="165.1 157.01 165.1 55.75 178.18 55.75 178.18 157.01 165.1 157.01 165.1 157.01"/><polygon class="cls-4" points="199.54 157.01 199.54 43.06 212.63 43.06 212.63 157.01 199.54 157.01 199.54 157.01"/><polygon class="cls-4" points="233.98 157.01 233.98 43.06 247.07 43.06 247.07 157.01 233.98 157.01 233.98 157.01"/><polygon class="cls-4" points="268.43 157.01 268.43 106.35 281.52 106.35 281.52 157.01 268.43 157.01 268.43 157.01"/><polyline class="cls-5" points="68.39 70.4 102.83 91.69 137.2 47.65 171.64 35.45 206.08 29.39 240.53 20.3 274.97 20.3"/><polygon class="cls-6" points="68.39 73.27 71.25 70.4 68.39 67.54 65.53 70.4 68.39 73.27 68.39 73.27"/><polygon class="cls-6" points="102.83 94.55 105.7 91.69 102.83 88.82 99.97 91.69 102.83 94.55 102.83 94.55"/><polygon class="cls-6" points="137.2 50.51 140.06 47.65 137.2 44.78 134.34 47.65 137.2 50.51 137.2 50.51"/><polygon class="cls-6" points="171.64 38.32 174.51 35.45 171.64 32.58 168.77 35.45 171.64 38.32 171.64 38.32"/><polygon class="cls-6" points="206.08 32.25 208.94 29.39 206.08 26.52 203.22 29.39 206.08 32.25 206.08 32.25"/><polygon class="cls-6" points="240.53 23.16 243.39 20.3 240.53 17.44 237.67 20.3 240.53 23.16 240.53 23.16"/><polygon class="cls-6" points="274.97 23.16 277.84 20.3 274.97 17.44 272.11 20.3 274.97 23.16 274.97 23.16"/><line class="cls-7" x1="51.13" y1="156.94" x2="292.15" y2="156.94"/><line class="cls-7" x1="68.39" y1="156.94" x2="68.39" y2="154.48"/><line class="cls-7" x1="102.83" y1="156.94" x2="102.83" y2="154.48"/><line class="cls-7" x1="137.2" y1="156.94" x2="137.2" y2="154.48"/><line class="cls-7" x1="171.64" y1="156.94" x2="171.64" y2="154.48"/><line class="cls-7" x1="206.08" y1="156.94" x2="206.08" y2="154.48"/><line class="cls-7" x1="240.53" y1="156.94" x2="240.53" y2="154.48"/><line class="cls-7" x1="274.89" y1="156.94" x2="274.89" y2="154.48"/><line class="cls-8" x1="51.21" y1="157.01" x2="51.21" y2="5.08"/><line class="cls-9" x1="51.21" y1="157.01" x2="53.66" y2="157.01"/><line class="cls-7" x1="51.21" y1="126.65" x2="53.66" y2="126.65"/><line class="cls-7" x1="51.21" y1="96.27" x2="53.66" y2="96.27"/><line class="cls-7" x1="51.21" y1="65.82" x2="53.66" y2="65.82"/><line class="cls-7" x1="51.21" y1="35.45" x2="53.66" y2="35.45"/><line class="cls-9" x1="51.21" y1="5.08" x2="53.66" y2="5.08"/><text class="cls-10" transform="translate(30.43 160.12)"><tspan class="cls-11">3</tspan><tspan x="5.07" y="0">.1</tspan></text><text class="cls-10" transform="translate(30.43 129.76)"><tspan class="cls-11">3</tspan><tspan x="5.07" y="0">.3</tspan></text><text class="cls-10" transform="translate(30.43 99.39)"><tspan class="cls-11">3</tspan><tspan x="5.07" y="0">.5</tspan></text><text class="cls-10" transform="translate(30.43 68.93)"><tspan class="cls-11">3</tspan><tspan x="5.07" y="0">.7</tspan></text><text class="cls-10" transform="translate(30.43 38.56)"><tspan class="cls-11">3</tspan><tspan x="5.07" y="0">.9</tspan></text><text class="cls-10" transform="translate(30.43 8.27)"><tspan class="cls-11">4</tspan><tspan x="5.07" y="0">.1</tspan></text><line class="cls-7" x1="292.15" y1="157.01" x2="292.15" y2="5.08"/><line class="cls-9" x1="292.15" y1="157.01" x2="289.69" y2="157.01"/><line class="cls-7" x1="292.15" y1="131.72" x2="289.69" y2="131.72"/><line class="cls-7" x1="292.15" y1="106.35" x2="289.69" y2="106.35"/><line class="cls-7" x1="292.15" y1="81.05" x2="289.69" y2="81.05"/><line class="cls-7" x1="292.15" y1="55.75" x2="289.69" y2="55.75"/><line class="cls-7" x1="292.15" y1="30.37" x2="289.69" y2="30.37"/><line class="cls-9" x1="292.15" y1="5.08" x2="289.69" y2="5.08"/><text class="cls-10" transform="translate(300.33 160.12)">0</text><text class="cls-10" transform="translate(300.33 134.83)">4</text><text class="cls-10" transform="translate(300.33 109.45)">8</text><text class="cls-10" transform="translate(300.33 84.15)"><tspan class="cls-12">1</tspan><tspan x="5.06" y="0">2</tspan></text><text class="cls-10" transform="translate(300.33 58.86)"><tspan class="cls-12">1</tspan><tspan x="5.06" y="0">6</tspan></text><text class="cls-10" transform="translate(300.33 33.56)"><tspan class="cls-12">2</tspan><tspan x="5.06" y="0">0</tspan></text><text class="cls-10" transform="translate(300.33 8.27)"><tspan class="cls-12">2</tspan><tspan x="5.06" y="0">4</tspan></text><line class="cls-8" x1="51.21" y1="5.08" x2="292.23" y2="5.08"/><text class="cls-10" transform="translate(59.72 64.76)">3</text><text class="cls-10" transform="translate(64.79 64.76)">.</text><text class="cls-10" transform="translate(67.33 64.76)">6</text><text class="cls-10" transform="translate(72.4 64.76)">7</text><text class="cls-10" transform="translate(91.54 81.05)">3</text><text class="cls-10" transform="translate(96.61 81.05)">.</text><text class="cls-10" transform="translate(99.15 81.05)">5</text><text class="cls-10" transform="translate(104.22 81.05)">3</text><text class="cls-10" transform="translate(128.36 41.83)">3</text><text class="cls-10" transform="translate(133.44 41.83)">.</text><text class="cls-10" transform="translate(135.97 41.83)">8</text><text class="cls-10" transform="translate(141.04 41.83)">2</text><text class="cls-10" transform="translate(163.22 29.63)">3</text><text class="cls-10" transform="translate(168.29 29.63)">.</text><text class="cls-10" transform="translate(170.83 29.63)">9</text><text class="cls-10" transform="translate(175.9 29.63)">0</text><text class="cls-10" transform="translate(197.08 23.08)">3</text><text class="cls-10" transform="translate(202.16 23.08)">.</text><text class="cls-10" transform="translate(204.69 23.08)">9</text><text class="cls-10" transform="translate(209.76 23.08)">4</text><text class="cls-10" transform="translate(232.93 15.72)">4</text><text class="cls-10" transform="translate(237.99 15.72)">.</text><text class="cls-10" transform="translate(240.45 15.72)">0</text><text class="cls-10" transform="translate(245.51 15.72)">0</text><text class="cls-10" transform="translate(266.79 15.72)">4</text><text class="cls-10" transform="translate(271.78 15.72)">.</text><text class="cls-10" transform="translate(274.32 15.72)">0</text><text class="cls-10" transform="translate(279.4 15.72)">0</text><polygon class="cls-1" points="30.43 162.24 310.63 162.24 310.63 0 30.43 0 30.43 162.24 30.43 162.24"/><g class="cls-13"><text class="cls-14" transform="translate(11.67 85.4) rotate(-90)"><tspan class="cls-15">G</tspan><tspan class="cls-16" x="10.08" y="0">P</tspan><tspan x="16.57" y="0">A</tspan></text></g><g class="cls-17"><g class="cls-13"><text class="cls-14" transform="translate(143.11 179.99)">Se<tspan class="cls-18" x="14.04" y="0">m</tspan><tspan class="cls-19" x="24.72" y="0">e</tspan><tspan class="cls-20" x="30.95" y="0">st</tspan><tspan x="40.43" y="0">er</tspan></text></g><g class="cls-17"><g class="cls-13"><text class="cls-14" transform="translate(324.64 30.03) rotate(90)">C<tspan class="cls-21" x="9.36" y="0">ou</tspan><tspan x="23.52" y="0">r</tspan><tspan class="cls-21" x="28.19" y="0">s</tspan><tspan x="33.71" y="0">e</tspan><tspan class="cls-22" x="39.94" y="0"> </tspan><tspan x="43.19" y="0">Cre</tspan><tspan class="cls-20" x="63.46" y="0">dit</tspan><tspan class="cls-23" x="78.45" y="0">s</tspan></text></g></g></g><g class="cls-24"><text class="cls-25" transform="translate(389.26 25.21)">G<tspan class="cls-19" x="10.08" y="0">P</tspan></text></g><g class="cls-26"><g class="cls-24"><text class="cls-14" transform="translate(405.82 25.21)">A</text></g></g><g class="cls-27"><text class="cls-14" transform="translate(389.58 40.16)">C</text></g><g class="cls-28"><g class="cls-27"><text class="cls-14" transform="translate(398.95 40.16)"><tspan class="cls-21">ou</tspan><tspan x="14.15" y="0">r</tspan><tspan class="cls-21" x="18.83" y="0">s</tspan><tspan x="24.35" y="0">e </tspan></text></g><g class="cls-28"><g class="cls-27"><text class="cls-14" transform="translate(432.79 40.16)">C</text></g><g class="cls-28"><g class="cls-27"><text class="cls-14" transform="translate(442.15 40.16)">re<tspan class="cls-29" x="10.91" y="0">dit</tspan><tspan x="25.9" y="0">s</tspan></text></g></g></g></g><g class="cls-30"><g class="cls-31"><polygon class="cls-4" points="360.76 31.75 380.45 31.75 380.45 39.15 360.76 39.15 360.76 31.75 360.76 31.75"/><line class="cls-32" x1="361.26" y1="19.84" x2="379.31" y2="19.84"/><polygon class="cls-6" points="370.28 22.71 373.15 19.84 370.28 16.96 367.41 19.84 370.28 22.71 370.28 22.71"/><text class="cls-33" transform="translate(370.44 31.01)">.</text></g></g></svg>