<svg id="圖層_1" data-name="圖層 1" xmlns="http://www.w3.org/2000/svg" viewBox="0 0 179.96 253.91"><defs><style>.cls-1{fill:#e34c26;}.cls-2{fill:#f06529;}.cls-3{fill:#eaeaea;}.cls-4{fill:#fefefe;}.cls-5{fill:#e34d26;}</style></defs><title>htmlIcon</title><path d="M131.56,1c0,.38-.09.77-.09,1.15q0,16,0,32c0,.91-.18,1.19-1.15,1.17-3.1-.07-6.21-.06-9.31,0-.82,0-1-.22-1-1,0-5.21,0-10.43-.17-15.74l-7.82,12c-2.65-4.07-5.24-8-7.82-12l-.19.05v3.65c0,4,0,8.05,0,12.07,0,.82-.23,1-1,1-3.07,0-6.14-.05-9.21,0-.83,0-1-.21-1-1q0-16.26,0-32.5c0-.25,0-.49,0-.74h12.07a12.47,12.47,0,0,1,2.18,3.21c1.69,2.76,3.41,5.51,5.09,8.37,2-3.32,4-6.58,6-9.85A4.39,4.39,0,0,1,119.49,1Z" transform="translate(-1.13 -1)"/><path d="M51.31,1c0,.38-.08.77-.08,1.15,0,10.61,0,21.23,0,31.84,0,1.12-.33,1.32-1.35,1.3-3-.07-6-.06-9,0-.86,0-1.14-.18-1.12-1.08.06-3.1,0-6.2,0-9.31,0-.77-.11-1.1-1-1.07q-4.23.09-8.46,0c-.89,0-1,.29-1,1.07,0,3.1,0,6.21,0,9.31,0,.9-.26,1.1-1.12,1.08-3.1-.05-6.2-.07-9.31,0-1,0-1.12-.3-1.12-1.18q0-16.56,0-33.11H29.29a2.08,2.08,0,0,1,.33,1.51c0,2.68,0,5.35,0,8,0,1.25.09,1.34,1.31,1.34h7.29c1.22,0,1.3-.09,1.31-1.34,0-2.68,0-5.35,0-8A2.13,2.13,0,0,1,39.88,1Z" transform="translate(-1.13 -1)"/><path d="M87.94,1c-.22,2.74,0,5.49-.09,8.24,0,1,.34,2.37-.18,3s-2,.2-3,.22c-2,0-4,.05-6,0-.77,0-.9.23-.9.94,0,7,0,13.9,0,20.85,0,.9-.27,1.1-1.12,1.08-3.11-.05-6.21-.05-9.32,0-.86,0-1-.27-1-1.06,0-6.92,0-13.83,0-20.75,0-.9-.24-1.1-1.1-1.08-2.68.06-5.36,0-8,0-.77,0-1-.14-1-1,0-3.5,0-7,0-10.48Z" transform="translate(-1.13 -1)"/><path d="M148.5,1c0,7.27,0,14.53,0,21.8,0,1,.28,1.14,1.17,1.13,4.69-.05,9.39,0,14.08,0,.79,0,1,.18,1,1q-.08,4.71,0,9.41c0,.81-.22,1-1,1q-12.81,0-25.62,0c-.84,0-1-.23-1-1.05q0-16,0-32.07c0-.39,0-.77,0-1.16Z" transform="translate(-1.13 -1)"/><path class="cls-1" d="M91.15,50.94h88.7c1.34,0,1.31,0,1.19,1.32-.56,6-1.09,12.08-1.63,18.12q-.91,10.17-1.83,20.33-.79,8.81-1.56,17.6c-.6,6.78-1.22,13.56-1.82,20.33-.53,5.91-1,11.81-1.57,17.71-.6,6.78-1.22,13.55-1.82,20.33l-1.56,17.49q-.92,10.28-1.84,20.55-.78,8.85-1.56,17.7c-.34,3.86-.72,7.72-1,11.59-.06.72-.5.76-1,.88l-17.71,4.91q-26.92,7.45-53.84,14.92a4.72,4.72,0,0,1-2.66,0Q54,244.81,18.31,235a1.05,1.05,0,0,1-.92-1.13c-.94-10.72-1.92-21.43-2.87-32.14-.82-9.09-1.6-18.19-2.41-27.29s-1.65-18.19-2.46-27.29c-.67-7.51-1.31-15-2-22.55Q6.56,112.15,5.43,99.72C4.83,93,4.25,86.23,3.65,79.49q-1-11.28-2-22.55c-.16-1.72-.29-3.44-.47-5.16-.07-.63.06-.94.76-.84a5.89,5.89,0,0,0,.84,0Z" transform="translate(-1.13 -1)"/><path class="cls-2" d="M91.11,88.42c0-7.06,0-14.12,0-21.17,0-.92.17-1.27,1.2-1.27q35.67,0,71.35,0c.86,0,1,.23.95,1-.31,3-.56,6-.83,9-.16,1.85-.29,3.7-.45,5.55-.26,2.86-.55,5.72-.81,8.58-.16,1.78-.3,3.56-.46,5.34-.27,3-.55,5.93-.82,8.9-.16,1.85-.29,3.7-.46,5.55-.25,2.86-.54,5.72-.8,8.58-.16,1.74-.31,3.49-.46,5.24-.27,3-.55,6-.82,9-.16,1.74-.31,3.49-.45,5.24-.25,3-.49,6-.81,9-.3,2.75-.44,5.52-.68,8.28s-.55,5.43-.81,8.15c-.17,1.78-.3,3.56-.46,5.34-.26,3-.55,5.93-.81,8.9-.17,1.92-.29,3.84-.46,5.76-.25,2.79-.55,5.58-.81,8.37-.16,1.78-.3,3.56-.46,5.34-.27,3-.55,5.93-.81,8.9-.17,1.92-.29,3.84-.46,5.76-.25,2.79-.54,5.58-.81,8.37,0,0,0,.07,0,.1.47,2.31-1,2.85-2.82,3.34-6.58,1.73-13.13,3.6-19.69,5.44q-9,2.52-18.06,5.07c-6.15,1.72-12.31,3.43-18.46,5.17-.55.16-.72,0-.7-.52V217.49a2.25,2.25,0,0,0-.21-1.33,1,1,0,0,1,.56-.5c5.45-1.59,10.94-3.06,16.41-4.58q13.82-3.86,27.63-7.68c1.36-.37,1.33-.4,1.47-1.78.67-6.7,1.21-13.41,1.82-20.11.54-5.86,1-11.73,1.57-17.59.6-6.63,1.18-13.27,1.8-19.9.25-2.7.51-5.41.71-8.11.1-1.4.06-1.41-1.37-1.41H93.14a3.57,3.57,0,0,1-2.06-.26.91.91,0,0,1-.2-.36,4.75,4.75,0,0,1-.11-1.36q0-9.85,0-19.71a2.91,2.91,0,0,1,.27-1.74,3,3,0,0,1,1.85-.25h50.45a2.42,2.42,0,0,0,1.54-.22,6.26,6.26,0,0,0,.5-3c.48-5.14,1-10.28,1.42-15.43.09-1.06.49-2.14.05-3.21-.47-.37-1-.23-1.54-.23H92.93C92.31,88.74,91.64,88.94,91.11,88.42Z" transform="translate(-1.13 -1)"/><path class="cls-3" d="M145.3,110.89c-.36.33-.81.16-1.21.16H92.48c-.45,0-.91,0-1.37,0a2.6,2.6,0,0,1-1.83.32H61.58c-2,0-1.94,0-1.76,2,.46,5.08.87,10.17,1.38,15.25a17.92,17.92,0,0,0,.67,5,1.68,1.68,0,0,0,1.21.25q13.83,0,27.65,0a.5.5,0,0,1,.37.14c0,.05,0,.1,0,.15a2,2,0,0,1,.34,1.4v19.71a2.59,2.59,0,0,1-.19,1.23l-.15.16c-.45,0-.91-.07-1.36-.07q-23.92,0-47.83,0c-1,0-1.3-.33-1.38-1.27q-.84-10-1.76-20-1.11-12.27-2.25-24.53-.9-10-1.76-19.91c-.06-.76-.54-1.74-.07-2.24s1.54-.18,2.33-.18h52.7c.46,0,.92,0,1.37,0s.92,0,1.38,0h53.75c.38,0,.83-.21,1.17.19-.61.51-1.35.34-2,.34Q121,89,96.59,89c-1.31,0-2.61,0-3.92,0-.82,0-1.22.26-1.22,1.15q0,9.63,0,19.26c0,.81.31,1.17,1.12,1.13.39,0,.77,0,1.16,0h49.53C144,110.55,144.69,110.38,145.3,110.89Z" transform="translate(-1.13 -1)"/><path class="cls-3" d="M91.35,215.93l-.44.23L72.71,211q-13.47-3.76-27-7.51a1.14,1.14,0,0,1-1-1.2q-1.11-12.75-2.28-25.49c-.23-2.6-.43-5.2-.7-7.79-.09-.89.06-1.21,1.07-1.21,6.81.06,13.62,0,20.43,0,.88,0,1.11.27,1.18,1.12.43,5.37.93,10.74,1.4,16.12,0,.54.15.85.79,1q12,3.19,24.07,6.44a1.93,1.93,0,0,0,.42,0l.13.16a3.12,3.12,0,0,1,.2,1.45q0,10.35,0,20.7A3.68,3.68,0,0,1,91.35,215.93Z" transform="translate(-1.13 -1)"/><path class="cls-2" d="M91.13,192.57q0-18,0-35.91v-.08a2.2,2.2,0,0,1,1.42-.27h24.85c1.6,0,1.73.12,1.6,1.67-.44,5.41-1,10.8-1.43,16.21-.32,3.5-.69,7-.92,10.52-.08,1.17-.3,1.48-1.42,1.79-7.55,2-15.11,4.05-22.67,6.09a1.82,1.82,0,0,1-1.43.06Z" transform="translate(-1.13 -1)"/><path class="cls-4" d="M91.11,192.65c7.91-2.13,15.82-4.28,23.75-6.35,1.11-.29,1.39-.79,1.48-1.85.56-6.78,1.19-13.54,1.8-20.32.21-2.31.41-4.63.63-6.94,0-.43-.07-.59-.49-.57-.24,0-.49,0-.74,0H92.26c-.38,0-.77,0-1.15,0V134.16c.39,0,.78,0,1.17,0q24.87,0,49.74,0c1,0,1.36.06,1.25,1.28-1,10.63-1.92,21.27-2.87,31.91q-1.47,16.54-3,33.08c0,.35-.1.7-.13,1-.18,1.88-.18,1.88-2,2.38l-43.26,12c-.24.07-.48.1-.72.15-.39-.34-.23-.8-.23-1.2Q91.1,203.69,91.11,192.65Z" transform="translate(-1.13 -1)"/><path class="cls-4" d="M145.3,110.89H92.49c-1.37,0-1.38,0-1.38-1.37,0-6.52,0-13.05,0-19.58,0-1,.25-1.29,1.28-1.29q27.52,0,55,0c-.22,2.66-.42,5.32-.66,8-.4,4.49-.83,9-1.24,13.45C145.48,110.37,145.53,110.66,145.3,110.89Z" transform="translate(-1.13 -1)"/><path class="cls-5" d="M91.1,134,91,134,91,134a2.16,2.16,0,0,1-.84.07H62.29a1.56,1.56,0,0,1-.83-.09,26.54,26.54,0,0,1-.56-4.78c-.55-5.5-1-11-1.51-16.51a4.35,4.35,0,0,0,0-.63c-.2-.89.22-1,1-1,6.87,0,13.74,0,20.61,0,3.38,0,6.76,0,10.14.07Q91.11,122.56,91.1,134Z" transform="translate(-1.13 -1)"/><path class="cls-2" d="M61.46,134,91,134a1.74,1.74,0,0,1-1,.13H62.47C62.14,134.12,61.77,134.25,61.46,134Z" transform="translate(-1.13 -1)"/></svg>