<svg id="圖層_1" data-name="圖層 1" xmlns="http://www.w3.org/2000/svg" xmlns:xlink="http://www.w3.org/1999/xlink" viewBox="0 0 414.72 126.12"><defs><style>.cls-1,.cls-2,.cls-3{fill:none;}.cls-2{clip-rule:evenodd;}.cls-3{fill-rule:evenodd;}.cls-4{clip-path:url(#clip-path);}.cls-5{font-size:60px;font-family:Calibri-Bold, Calibri;font-weight:700;}.cls-6{letter-spacing:-0.01em;}.cls-7{letter-spacing:-0.01em;}.cls-8{letter-spacing:-0.07em;}.cls-9{clip-path:url(#clip-path-2);}.cls-10{font-size:18px;fill:#7f7f7f;font-family:Calibri, Calibri;}.cls-11{letter-spacing:0em;}.cls-12{letter-spacing:0em;}.cls-13{letter-spacing:-0.01em;}.cls-14{letter-spacing:-0.02em;}.cls-15{letter-spacing:0em;}.cls-16{letter-spacing:-0.01em;}.cls-17{letter-spacing:-0.01em;}.cls-18{letter-spacing:0em;}.cls-19{letter-spacing:0em;}.cls-20{letter-spacing:0em;}.cls-21{letter-spacing:0.01em;}.cls-22{letter-spacing:0em;}.cls-23{letter-spacing:0em;}.cls-24{letter-spacing:0em;}.cls-25{letter-spacing:0em;}.cls-26{letter-spacing:-0.03em;}</style><clipPath id="clip-path" transform="translate(1.28 26.97)"><rect class="cls-1" x="-1.28" y="-26.97" width="414.72" height="126.12"/></clipPath><clipPath id="clip-path-2" transform="translate(1.28 26.97)"><polygon class="cls-2" points="-1.28 99.15 413.44 99.15 413.44 -26.97 -1.28 -26.97 -1.28 99.15 -1.28 99.15"/></clipPath></defs><title>ryanname</title><g class="cls-4"><text class="cls-5" transform="translate(86.07 74.18)"><tspan class="cls-6">R</tspan><tspan class="cls-7" x="33.3" y="0">y</tspan><tspan x="60.82" y="0">an </tspan><tspan class="cls-8" x="136.2" y="0">T</tspan><tspan x="162" y="0">sai </tspan></text></g><g class="cls-9"><g class="cls-4"><text class="cls-10" transform="translate(10.84 109.38)">CSS <tspan class="cls-11" x="30.21" y="0">B</tspan><tspan x="40.04" y="0">oo</tspan><tspan class="cls-12" x="59.02" y="0">t</tspan><tspan class="cls-13" x="65.03" y="0">s</tspan><tspan class="cls-12" x="71.87" y="0">t</tspan><tspan class="cls-14" x="77.88" y="0">r</tspan><tspan x="83.78" y="0">a</tspan><tspan class="cls-15" x="92.4" y="0">p</tspan><tspan x="101.88" y="0">| </tspan></text></g><g class="cls-9"><g class="cls-4"><text class="cls-10" transform="translate(124.96 109.38)"><tspan class="cls-15">J</tspan><tspan class="cls-16" x="5.76" y="0">a</tspan><tspan class="cls-17" x="14.16" y="0">v</tspan><tspan x="22.1" y="0">a</tspan><tspan class="cls-11" x="30.72" y="0">s</tspan><tspan class="cls-18" x="37.79" y="0">c</tspan><tspan class="cls-12" x="45.37" y="0">r</tspan><tspan class="cls-18" x="51.63" y="0">i</tspan><tspan class="cls-19" x="55.72" y="0">p</tspan><tspan x="65.09" y="0">t</tspan></text></g><g class="cls-4"><text class="cls-10" transform="translate(196 109.38)">| <tspan class="cls-20" x="12.36" y="0">P</tspan><tspan class="cls-21" x="21.71" y="0">y</tspan><tspan class="cls-22" x="29.98" y="0">t</tspan><tspan class="cls-23" x="36" y="0">h</tspan><tspan x="45.47" y="0">o</tspan><tspan class="cls-24" x="54.96" y="0">n</tspan><tspan x="64.44" y="0"> </tspan></text></g><g class="cls-9"><g class="cls-4"><text class="cls-10" transform="translate(264.52 109.38)"><tspan class="cls-22">D</tspan><tspan x="11.06" y="0">ja</tspan><tspan class="cls-23" x="23.99" y="0">n</tspan><tspan class="cls-25" x="33.46" y="0">g</tspan><tspan x="41.86" y="0">o| </tspan></text></g><g class="cls-9"><g class="cls-4"><text class="cls-10" transform="translate(328.36 109.38)"><tspan class="cls-26">T</tspan><tspan class="cls-18" x="8.29" y="0">O</tspan><tspan class="cls-22" x="20.17" y="0">E</tspan><tspan class="cls-23" x="28.94" y="0">I</tspan><tspan x="33.49" y="0">C:750</tspan></text></g></g></g><polygon class="cls-3" points="0 126.12 414.72 126.12 414.72 0 0 0 0 126.12 0 126.12"/></g></g></svg>