<svg id="圖層_1" data-name="圖層 1" xmlns="http://www.w3.org/2000/svg" xmlns:xlink="http://www.w3.org/1999/xlink" viewBox="0 0 610.72 102.29"><defs><style>.cls-1,.cls-2,.cls-3{fill:none;}.cls-2{clip-rule:evenodd;}.cls-3{fill-rule:evenodd;}.cls-4{clip-path:url(#clip-path);}.cls-5{font-size:60px;font-family:Calibri-Bold, Calibri;font-weight:700;}.cls-6{letter-spacing:-0.01em;}.cls-7{letter-spacing:-0.01em;}.cls-8{letter-spacing:-0.06em;}.cls-9{clip-path:url(#clip-path-2);}.cls-10,.cls-21{font-size:27.96px;fill:#7f7f7f;font-family:Calibri, Calibri;}.cls-11{letter-spacing:0em;}.cls-12{letter-spacing:0.01em;}.cls-13{letter-spacing:0em;}.cls-14{letter-spacing:-0.01em;}.cls-15{letter-spacing:0em;}.cls-16{letter-spacing:-0.02em;}.cls-17{letter-spacing:-0.02em;}.cls-18{letter-spacing:0em;}.cls-19{letter-spacing:0em;}.cls-20{letter-spacing:-0.01em;}.cls-21,.cls-28{letter-spacing:0em;}.cls-22{letter-spacing:0em;}.cls-23{letter-spacing:0em;}.cls-24{letter-spacing:0em;}.cls-25{letter-spacing:0em;}.cls-26{letter-spacing:0em;}.cls-27{letter-spacing:0em;}.cls-29{letter-spacing:-0.01em;}.cls-30{letter-spacing:0em;}.cls-31{letter-spacing:-0.03em;}.cls-32{letter-spacing:0em;}</style><clipPath id="clip-path" transform="translate(-11.38 -8.78)"><rect class="cls-1" x="-24.72" y="-16.51" width="663.6" height="143.16"/></clipPath><clipPath id="clip-path-2" transform="translate(-11.38 -8.78)"><polygon class="cls-2" points="-24.72 126.65 638.88 126.65 638.88 -16.51 -24.72 -16.51 -24.72 126.65 -24.72 126.65"/></clipPath></defs><title>ryanname3</title><g class="cls-4"><text class="cls-5" transform="translate(0 48.96)"><tspan class="cls-6">R</tspan><tspan class="cls-7" x="33.3" y="0">y</tspan><tspan x="60.82" y="0">an </tspan><tspan class="cls-8" x="136.2" y="0">T</tspan><tspan x="162.01" y="0">sai </tspan></text></g><g class="cls-9"><g class="cls-4"><text class="cls-10" transform="translate(0.01 93.55)"><tspan class="cls-11">C</tspan><tspan x="14.88" y="0">SS</tspan><tspan class="cls-12" x="40.57" y="0"> </tspan><tspan class="cls-13" x="47.04" y="0">B</tspan><tspan x="62.27" y="0">oot</tspan><tspan class="cls-14" x="101.13" y="0">s</tspan><tspan class="cls-15" x="111.7" y="0">t</tspan><tspan class="cls-16" x="121.06" y="0">r</tspan><tspan class="cls-13" x="130.2" y="0">a</tspan><tspan class="cls-11" x="143.62" y="0">p|</tspan><tspan x="171.13" y="0"> </tspan></text></g><g class="cls-9"><g class="cls-4"><text class="cls-10" transform="translate(177.73 93.55)"><tspan class="cls-11">J</tspan><tspan class="cls-17" x="8.89" y="0">a</tspan><tspan class="cls-14" x="21.86" y="0">v</tspan><tspan class="cls-13" x="34.13" y="0">a</tspan><tspan x="47.55" y="0">s</tspan><tspan class="cls-18" x="58.48" y="0">c</tspan><tspan x="70.36" y="0">r</tspan><tspan class="cls-19" x="80.11" y="0">i</tspan><tspan class="cls-20" x="86.47" y="0">p</tspan><tspan x="100.99" y="0">t</tspan></text></g><g class="cls-9"><g class="cls-4"><text class="cls-21" transform="translate(288.01 93.55)">|<tspan class="cls-22" x="12.85" y="0"> </tspan><tspan class="cls-23" x="19.31" y="0">Py</tspan><tspan class="cls-24" x="46.52" y="0">t</tspan><tspan class="cls-25" x="55.88" y="0">h</tspan><tspan class="cls-24" x="70.55" y="0">o</tspan><tspan x="85.29" y="0">n</tspan><tspan class="cls-26" x="99.95" y="0"> </tspan></text></g><g class="cls-9"><g class="cls-4"><text class="cls-10" transform="translate(394.81 93.55)"><tspan class="cls-25">D</tspan><tspan class="cls-27" x="17.17" y="0">ja</tspan><tspan class="cls-28" x="37.31" y="0">n</tspan><tspan class="cls-29" x="51.97" y="0">g</tspan><tspan class="cls-24" x="64.94" y="0">o</tspan><tspan class="cls-25" x="79.68" y="0">|</tspan><tspan class="cls-30" x="92.53" y="0"> </tspan><tspan class="cls-31" x="98.99" y="0">T</tspan><tspan class="cls-28" x="111.83" y="0">O</tspan><tspan x="130.32" y="0">E</tspan><tspan class="cls-32" x="143.97" y="0">I</tspan><tspan class="cls-25" x="151.04" y="0">C</tspan><tspan x="165.92" y="0">:</tspan></text></g><g class="cls-9"><g class="cls-4"><text class="cls-10" transform="translate(568.21 93.55)">750</text></g></g></g></g></g></g></svg>