<svg id="圖層_1" data-name="圖層 1" xmlns="http://www.w3.org/2000/svg" viewBox="0 0 180.93 254.91"><defs><style>.cls-1{fill:#252122;}.cls-2{fill:#5d5a5a;}.cls-3{fill:#e5a229;}.cls-4{fill:#242021;}.cls-5{fill:#fbfbfb;}.cls-6{fill:#f0be22;}.cls-7{fill:#eaeaea;}.cls-8{fill:#e6b55c;}.cls-9{fill:#eaecef;}.cls-10{fill:#e6b660;}.cls-11{fill:#e49e1e;}.cls-12{fill:#e49d1d;}.cls-13{fill:#eaedf3;}.cls-14{fill:#fefefe;}.cls-15{fill:#fefefd;}.cls-16{fill:#e7bb69;}.cls-17{fill:#efba14;}.cls-18{fill:#efba15;}.cls-19{fill:#efbc1b;}.cls-20{fill:#efbb16;}.cls-21{fill:#efbb17;}.cls-22{fill:#eaecf1;}.cls-23{fill:#e8d2ac;}.cls-24{fill:#e4a024;}.cls-25{fill:#eaeff6;}.cls-26{fill:#eaeef5;}.cls-27{fill:#efba16;}.cls-28{fill:#e49f20;}</style></defs><title>jsIcon</title><path class="cls-1" d="M93.62,8c-.08,10.16-.3,20.32-.13,30.47.05,3.36-.94,4.29-4.2,4.17-6.66-.22-13.33-.16-20,0-2.67.06-3.76-.52-3.77-3.53C65.51,31,65.34,31,73.6,31s8.13,0,8.11-8c0-5-.06-10-.09-15Z" transform="translate(-8.81 -8)"/><path class="cls-2" d="M105.68,20.81c-2.1-4.12-.23-8.58-1.06-12.81h29c-.92,3.94,1.06,8.12-1,12a5.33,5.33,0,0,1-1.38-4.12c.36-4.59-2.16-5.58-6.1-5.39-4.12.2-8.26.2-12.37,0-3.88-.18-6,1.05-5.71,5.28C107.15,17.49,107.15,19.39,105.68,20.81Z" transform="translate(-8.81 -8)"/><path class="cls-3" d="M99.09,58.08c28.48,0,57,.12,85.45-.12,4.65,0,5.53,1.31,5.11,5.61-2.7,27.16-5.2,54.33-7.72,81.5q-3.19,34.55-6.3,69.11c-.75,8.28-1.52,16.57-2.16,24.87-.18,2.3-1,3.46-3.36,4.13q-34.35,9.6-68.63,19.46a8.46,8.46,0,0,1-4.88-.23q-33.34-9.5-66.73-18.85c-3-.83-4.2-2-4.5-5.3q-6.3-70.86-13-141.68c-1.08-11.77-2.14-23.53-3.53-35.26-.51-4.26,2.17-3.21,4.26-3.22q39.48,0,79,0Z" transform="translate(-8.81 -8)"/><path class="cls-4" d="M105.68,20.81C105.84,9,105.84,9,117.69,9a94.49,94.49,0,0,0,10-.07c4.08-.42,5.33,1.23,4.89,5.05a44.11,44.11,0,0,0,.06,6l-9.33.54-1,1c3,2.66,6.05,5.28,9,8,3.7,3.4,1.61,7.8,1.75,11.77,0,1.3-1.86,1-3,1-7.32,0-14.64-.07-22,0-2.41,0-3-.8-3.13-3.16-.29-7.72-.4-7.71,7.41-7.85.93,0,1.86-.1,4.41-.24Z" transform="translate(-8.81 -8)"/><path class="cls-5" d="M92.37,44.75H66.65v-.5H92.39Z" transform="translate(-8.81 -8)"/><path class="cls-5" d="M106.7,44.27h24.62v.38H106.71Z" transform="translate(-8.81 -8)"/><path class="cls-6" d="M99.58,94c0-5.83.1-11.67,0-17.5,0-2.55.88-3.54,3.49-3.54q33.48.11,67,0c3.45,0,3.67,1.58,3.36,4.4-1.05,9.53-1.85,19.09-2.79,28.63-1.25,12.67-2.58,25.33-3.8,38-.8,8.24-1.43,16.49-2.2,24.73-1.26,13.5-2.6,27-3.83,40.5-.5,5.45-1.06,10.91-1.07,16.36,0,3.38-1,5.15-4.33,6.08q-25.9,7.11-51.71,14.57c-3.27,1-4.17.22-4.1-3,.13-6.33,0-12.67,0-19A4.34,4.34,0,0,1,102,222c12.26-3.6,24.56-7.05,36.87-10.48,4.09-1.14,6-3.38,6.3-7.69,1.51-19.33,3.16-38.66,5.32-57.93.13-1.42,1.26-3-.61-4.12-14.42-.79-28.84-.09-43.25-.35-2.44,0-5,.45-7.18-1.26-2.5-6.53-1.81-13.12-.43-19.72,1.41-1.8,3.45-1.76,5.43-1.78,5.63,0,11.26-.09,16.88,0s5.84.47,5.62,6.34c0,.66.91-.28.24-.24-.08,0-.12-.15-.11-.47a14.52,14.52,0,0,1,.12-2c3.49-.55,2.56,2.4,2.65,3.86.21,3.52,2,4.57,5.17,4.45s6.65,0,10,0c2,0,4.06,0,5.29-2.05a10.47,10.47,0,0,0,2.1-4c-.84.13-.07,1.75-1.27,1.74-2.06-1.06-1.67-2.89-1.46-4.66a4.06,4.06,0,0,1,.8-1.72c.72-.79.53-1.8.75-2.72-.34.71.08,1.8-1.06,2.1-2.11-1-1.69-2.89-1.49-4.66.23-1.56,2.2-2.68,1.15-4.56.29.92.56,1.84-.77,2.2-2-1.18-1.62-3-1.34-4.82a5.65,5.65,0,0,1,.9-1.74c.73-1,.41-2.22.49-3.34-.19,1,.33,2.13-.69,2.92-3.45-1.81-1.53-5.74-3.26-8.23a2.8,2.8,0,0,0-1-1.19c-12.21-.94-24.41-.13-36.61-.41-2.45-.06-5,.39-7.31-.75Z" transform="translate(-8.81 -8)"/><path class="cls-7" d="M49.68,157q2.22-25.46,4.43-50.92c.26-3,.44-5.94.65-8.91A.76.76,0,0,1,55.88,97a14.41,14.41,0,0,1,6.41-1.39c10.29,0,20.58,0,30.88,0,5.73,0,6.68,1,6.82,6.65.12,4.48-.13,9,.21,13.44a2.74,2.74,0,0,1-.65,1.61c-3.59,1.9-7.47.75-11.22,1-4.12.3-8.27-.48-12.35.48a2.93,2.93,0,0,0-.82,1.23,46.93,46.93,0,0,0-.14,6.16c.39,4.56-1.6,9-.89,13.53a2.9,2.9,0,0,0,.81,1.3c5.94,1.21,11.93.22,17.88.55,2.29.12,4.69-.38,6.77,1.09a2.92,2.92,0,0,1,.63,1.74c-.4,4.8-.14,9.61-.22,14.41-.06,3.66-1.66,5.51-5.42,5.52-13.25,0-26.51-.12-39.76.07C48.84,164.53,50.21,160.3,49.68,157Z" transform="translate(-8.81 -8)"/><path class="cls-7" d="M101.81,223.14l-2.22,1.07L54.46,211.07c.35-.4.25-1,0-1.15-.76-.32-.32.77-.82.86-2.28-7.82-1.68-16-2.92-24-.15-1-.12-2-.19-3-.55-8.06-.55-8.06,7.84-8.06,3.65,0,7.31.14,11,0,2.56-.13,3.56.81,3.65,3.34.13,3.64.55,7.28.82,10.91.12,1.7.18,3.38,2.31,3.88,7.89,1.87,15.42,5.08,23.5,6.23a1.51,1.51,0,0,1,2.15-.12A73.44,73.44,0,0,0,101.81,223.14Z" transform="translate(-8.81 -8)"/><path class="cls-6" d="M101.57,200.14l-2,0q0-17.06,0-34.11l.66-.62c5.83-1.56,11.78-.42,17.67-.74,2.46-.13,4.94,0,7.4-.21a2.69,2.69,0,0,1,1.64.64c2.13,6.07-.6,12.08-.23,18.14.55,8.74-3.5,13.51-12.25,14.61C110.15,198.36,106.25,201.4,101.57,200.14Z" transform="translate(-8.81 -8)"/><path class="cls-8" d="M55.53,96.72a4.07,4.07,0,0,0-.77.47c0-.7-.09-1.4-.14-2.1,2.86-1.17,5.85-.52,8.78-.54,12.05-.08,24.11,0,36.17,0,14.06,0,28.12,0,42.17,0,1.62,0,3.32-.43,4.86.47,0,.31,0,.63,0,.94a5.33,5.33,0,0,1-3.6,1.5c-14.42.06-28.84.7-43.25-.33-2.22-1-4.58-.63-6.88-.61C80.43,96.6,68,96.19,55.53,96.72Z" transform="translate(-8.81 -8)"/><path class="cls-9" d="M49.68,157c.36,6,4.21,6.21,9,6.08,11.11-.31,22.23-.1,33.34-.1,6.55,0,6.37,0,6.62-6.36.17-4.21-1.17-8.56.91-12.64,2.63,6.72,2.32,13.47.22,20.25-.64.16.23.19-.43.23-16.31,1.06-32.64.43-49,.32a2.39,2.39,0,0,1-1.64-1Z" transform="translate(-8.81 -8)"/><path class="cls-10" d="M48.78,163.78l50.84.08c1.63-1.38,3.62-1.41,5.59-1.43,5.41,0,10.83-.17,16.23.08,1.9.09,4.5-.59,5.06,2.49a7.25,7.25,0,0,0-.93.05c-8.67,1-17.37.19-26,.43-15.36,0-30.71,0-46.07,0-1.61,0-3.31.46-4.84-.5Z" transform="translate(-8.81 -8)"/><path class="cls-11" d="M48.61,165l51,.12c.35.19.47.39.37.6s-.22.32-.33.32h0c-15.27,0-30.55,0-45.83,0C52,166,50.05,166.66,48.61,165Z" transform="translate(-8.81 -8)"/><path class="cls-12" d="M99.58,94.92l-45,.17C56,93.32,58,94,59.73,94,73,94,86.3,94,99.58,94h0c.33.22.43.43.31.63S99.69,94.92,99.58,94.92Z" transform="translate(-8.81 -8)"/><path class="cls-12" d="M71.36,174.73H50.66v-.49H71.4Z" transform="translate(-8.81 -8)"/><path class="cls-13" d="M53.63,210.78v-2.12c-.31.41,4.06.81.83,2.41A.81.81,0,0,1,53.63,210.78Z" transform="translate(-8.81 -8)"/><path class="cls-14" d="M126.5,165c-2.63-2.09-5.68-.79-8.51-.91-6.12-.26-12.25-.17-18.37-.23l0-19.86q0-.5,0-1a1.14,1.14,0,0,1,.61-1.6c11.11-.91,22.24-.2,33.35-.39,5-.08,10-.05,15,0,2.63,0,4.25.92,3.26,3.95-1.83,20.49-3.69,41-5.44,61.46-.27,3.17-1.32,4.9-4.73,5.78-13.32,3.43-26.53,7.24-39.79,10.92-2.59-.42-2.18-2.43-2.2-4.19,0-5.23.26-10.5-.24-15.69-.22-2.3,1.51-2.09,2.2-3.12,6.53-1.94,13-3.93,19.59-5.8,1.89-.55,3.27-1.1,3.42-3.5C125.11,182.22,125.85,173.61,126.5,165Z" transform="translate(-8.81 -8)"/><path class="cls-15" d="M99.61,96.13l47-.18c.64,3.09,1.28,6.17,1.91,9.26.73.52.63,1.12.19,1.76-.08,1.81-.19,3.63.79,5.28.77.5.65,1.09.19,1.73-.07,1.82-.19,3.64.79,5.3.8.48.66,1.07.2,1.7-.08,1.83-.21,3.66.78,5.33.83.46.67,1,.2,1.68.33,2.79-.41,4.2-3.72,4a100.3,100.3,0,0,0-14.4,0c-4,.31-5.37-1.11-5.06-5a9.54,9.54,0,0,0-.68-5.36c-.94-.58-.67-2.09-1.9-2.45-6.82-.48-13.65-.07-20.48-.22-1.81,0-3.67.29-5.42-.49a1.08,1.08,0,0,1-.4-1.51v-1A85.66,85.66,0,0,1,99.61,96.13Z" transform="translate(-8.81 -8)"/><path class="cls-3" d="M73.69,126l.06-6.86a2.2,2.2,0,0,1,1.59-.62c7.87.57,15.81-.84,23.65.83l.63.62v20l-.71.65c-7.2,1.5-14.47.63-21.71.55-3,0-3.63-2.27-3.58-4.88C73.68,132.89,74.88,129.46,73.69,126Z" transform="translate(-8.81 -8)"/><path class="cls-16" d="M151.77,145c.17-2.37-1-3.06-3.27-3-16.3.13-32.59.14-48.89.2-9,.39-18,.92-27-.29a3.52,3.52,0,0,1,.22-1c9-.86,17.94-.14,26.9-.37q24,0,48.07,0c1.59,0,3.31-.55,4.78.6C152.5,142.46,153,143.92,151.77,145Z" transform="translate(-8.81 -8)"/><path class="cls-17" d="M152.6,141.14l-53-.22c-.31-.2-.41-.41-.31-.61s.2-.32.3-.32h0c16,0,31.93,0,47.9,0C149.24,140,151.24,139.29,152.6,141.14Z" transform="translate(-8.81 -8)"/><path class="cls-18" d="M99.58,94.92c0-.31,0-.61,0-.92,13.94,0,27.88,0,41.83,0,1.74,0,3.69-.68,5.15,1Z" transform="translate(-8.81 -8)"/><path class="cls-19" d="M127.62,118.92c0,.91.11,1.83.17,2.74-.13,2.43-.25,4.86-.39,7.57-.37-.4-.54-.49-.56-.6-1-8.63-1-8.63-9.86-8.63H99.58a1,1,0,0,1,.68-1.43C109.38,118.69,118.51,118,127.62,118.92Z" transform="translate(-8.81 -8)"/><path class="cls-20" d="M148.7,107c-.06-.59-.12-1.17-.19-1.76.12-1.09.23-2.18.46-4.32C149.73,103.7,150.12,105.41,148.7,107Z" transform="translate(-8.81 -8)"/><path class="cls-21" d="M149.68,114c-.06-.58-.13-1.16-.19-1.73.1-.76.21-1.52.45-3.31C150.76,111.41,151,112.76,149.68,114Z" transform="translate(-8.81 -8)"/><path class="cls-17" d="M151.65,128c-.06-.56-.13-1.13-.2-1.69.13-.76.26-1.52.55-3.24C152.69,125.42,153.07,126.78,151.65,128Z" transform="translate(-8.81 -8)"/><path class="cls-18" d="M150.67,121c-.07-.57-.13-1.13-.2-1.7.11-.76.23-1.52.5-3.32C151.7,118.41,152.07,119.77,150.67,121Z" transform="translate(-8.81 -8)"/><path class="cls-22" d="M99.61,96.13q0,9.93,0,19.86c-2.06-4.58-.82-9.42-.88-14.12,0-3.5-.72-5-4.66-5C83,97.16,71.85,97,60.74,97c-2.29,0-4.45-.07-4.28,3.41-1.25-1.33-.65-2.58-.93-3.66,2.12-1.48,4.51-.68,6.75-.69C74.72,96,87.17,96.08,99.61,96.13Z" transform="translate(-8.81 -8)"/><path class="cls-23" d="M127.62,118.92l-28,.22a196.71,196.71,0,0,1-24.88,0l-.47,0-.48,0c0-.37-.09-.74-.13-1.1,8.66-1,17.32-.71,26-.15,7.78,0,15.56,0,23.33.12C124.52,118.06,126.29,117.43,127.62,118.92Z" transform="translate(-8.81 -8)"/><path class="cls-24" d="M99.58,140c0,.31,0,.62,0,.93l-26.74,0L73.69,126c1.9,2.71,1,5.8.82,8.66-.18,4,.9,5.63,5.21,5.4C86.32,139.74,93,140,99.58,140Z" transform="translate(-8.81 -8)"/><path class="cls-25" d="M72.63,141.85l27,.29c0,.29,0,.58,0,.87-7.47,0-14.93,0-22.4,0C75.62,143,73.81,143.58,72.63,141.85Z" transform="translate(-8.81 -8)"/><path class="cls-26" d="M99.61,117.92l-26,.14c2.63-2.15,5.72-.89,8.59-1,5.78-.21,11.58-.06,17.38-.07C99.6,117.3,99.61,117.61,99.61,117.92Z" transform="translate(-8.81 -8)"/><path class="cls-27" d="M99.62,166c0-.31,0-.62,0-.92l26,0c-4.06,2-8.39.66-12.58.89C108.54,166.19,104.08,166,99.62,166Z" transform="translate(-8.81 -8)"/><path class="cls-28" d="M74.7,119.19l24.88,0a6.31,6.31,0,0,1,0,.87c-6.73,0-13.45,0-20.18,0C77.81,120,76.09,120.5,74.7,119.19Z" transform="translate(-8.81 -8)"/></svg>