<?xml version="1.0" encoding="utf-8"?>
<!-- Generator: Adobe Illustrator 22.0.1, SVG Export Plug-In . SVG Version: 6.00 Build 0)  -->
<svg version="1.1" id="圖層_1" xmlns="http://www.w3.org/2000/svg" xmlns:xlink="http://www.w3.org/1999/xlink" x="0px" y="0px"
	 viewBox="0 0 1396 657" style="enable-background:new 0 0 1396 657;" xml:space="preserve">
<style type="text/css">
	.st0{clip-path:url(#SVGID_3_);}
	.st1{clip-path:url(#SVGID_4_);}
	.st2{clip-path:url(#SVGID_6_);fill:#F7F7F7;}
	.st3{clip-path:url(#SVGID_8_);}
	.st4{clip-path:url(#SVGID_11_);}
	.st5{clip-path:url(#SVGID_12_);}
	.st6{clip-path:url(#SVGID_14_);fill:#F7F7F7;}
	.st7{clip-path:url(#SVGID_16_);}
	.st8{clip-path:url(#SVGID_19_);}
	.st9{clip-path:url(#SVGID_20_);}
	.st10{clip-path:url(#SVGID_22_);fill:#F7F7F7;}
	.st11{clip-path:url(#SVGID_24_);}
	.st12{clip-path:url(#SVGID_27_);}
	.st13{clip-path:url(#SVGID_28_);}
	.st14{clip-path:url(#SVGID_30_);fill:#F7F7F7;}
	.st15{clip-path:url(#SVGID_32_);}
	.st16{clip-path:url(#SVGID_35_);}
	.st17{clip-path:url(#SVGID_36_);}
	.st18{clip-path:url(#SVGID_38_);fill:#F7F7F7;}
	.st19{clip-path:url(#SVGID_40_);}
	.st20{clip-path:url(#SVGID_43_);}
	.st21{clip-path:url(#SVGID_44_);}
	.st22{clip-path:url(#SVGID_46_);fill:#F7F7F7;}
	.st23{clip-path:url(#SVGID_48_);}
	.st24{clip-path:url(#SVGID_51_);}
	.st25{clip-path:url(#SVGID_52_);}
	.st26{clip-path:url(#SVGID_54_);fill:#F7F7F7;}
</style>
<g>
	<g>
		<defs>
			<polygon id="SVGID_1_" points="0.3,653.9 1396,653.9 1396,0 0.3,0 0.3,653.9 			"/>
		</defs>
		<defs>
			<polygon id="SVGID_2_" points="1183.7,0 1396,0 1396,198.1 1183.7,198.1 1183.7,0 			"/>
		</defs>
		<clipPath id="SVGID_3_">
			<use xlink:href="#SVGID_1_"  style="overflow:visible;"/>
		</clipPath>
		<clipPath id="SVGID_4_" class="st0">
			<use xlink:href="#SVGID_2_"  style="overflow:visible;"/>
		</clipPath>
		<g class="st1">
			<defs>
				<polygon id="SVGID_5_" points="1183.7,198.1 1396,198.1 1396,0 1183.7,0 1183.7,198.1 				"/>
			</defs>
			<clipPath id="SVGID_6_">
				<use xlink:href="#SVGID_5_"  style="overflow:visible;"/>
			</clipPath>
			<path class="st2" d="M1300.8,133.1c-40.5-0.2-84.5-0.4-114.4-13.2c2.3,8.8,5.9,17.1,10.5,24.8c24,9.9,64.9,10.1,102.3,10.3
				c25.5,0.1,49.3,0.2,68.8,3.1c5-5.8,9.4-12.1,12.9-18.9C1363.1,133.4,1329.3,133.2,1300.8,133.1L1300.8,133.1z"/>
			<path class="st2" d="M1307.1,58.2c29.5,0.1,56.6,0.3,77.6,4.7c-3.5-8.7-8.3-16.8-14.2-24.1c-18.1-2.2-41.3-2.3-61.8-2.4
				c-32.6-0.1-67.6-0.3-95.5-7.1c-5.1,4.9-9.7,10.3-13.6,16.1C1222.3,57.8,1266.8,58,1307.1,58.2L1307.1,58.2z"/>
			<path class="st2" d="M1308.8,11.4c9.6,0,19,0.1,28,0.3C1322.1,4.2,1305.3,0,1287.4,0c-15.7,0-30.6,3.3-43.9,9.1
				C1263.7,11.1,1286.9,11.3,1308.8,11.4L1308.8,11.4z"/>
			<path class="st2" d="M1299.1,179.9c-23.3-0.1-47.9-0.2-70.2-2.8c16.7,10.6,36.8,16.8,58.5,16.8c19.2,0,37.1-4.9,52.5-13.3
				C1326.5,180,1312.2,179.9,1299.1,179.9L1299.1,179.9z"/>
			<path class="st2" d="M1389.3,115.7c1.3-6.1,2-12.3,2-18.7c0-2.1-0.1-4.2-0.2-6.2c-16.3-7.4-53.3-7.6-84.1-7.7
				c-42.5-0.2-88.9-0.4-118.7-15.2c-2.2,6.5-3.6,13.3-4.3,20.3c17.7,19.5,70.1,19.8,117,20C1335.7,108.3,1367.3,108.5,1389.3,115.7
				L1389.3,115.7z"/>
		</g>
	</g>
	<g>
		<defs>
			<polygon id="SVGID_7_" points="0.3,653.9 1396,653.9 1396,0 0.3,0 0.3,653.9 			"/>
		</defs>
		<clipPath id="SVGID_8_">
			<use xlink:href="#SVGID_7_"  style="overflow:visible;"/>
		</clipPath>
		<g class="st3">
			<defs>
				<polygon id="SVGID_9_" points="0.3,653.9 1396,653.9 1396,0 0.3,0 0.3,653.9 				"/>
			</defs>
			<defs>
				<polygon id="SVGID_10_" points="907.5,426.8 1119.8,426.8 1119.8,625.1 907.5,625.1 907.5,426.8 				"/>
			</defs>
			<clipPath id="SVGID_11_">
				<use xlink:href="#SVGID_9_"  style="overflow:visible;"/>
			</clipPath>
			<clipPath id="SVGID_12_" class="st4">
				<use xlink:href="#SVGID_10_"  style="overflow:visible;"/>
			</clipPath>
			<g class="st5">
				<defs>
					<polygon id="SVGID_13_" points="907.5,625.1 1119.8,625.1 1119.8,426.8 907.5,426.8 907.5,625.1 					"/>
				</defs>
				<clipPath id="SVGID_14_">
					<use xlink:href="#SVGID_13_"  style="overflow:visible;"/>
				</clipPath>
				<path class="st6" d="M1024.6,560c-40.5-0.2-84.5-0.4-114.4-13.2c2.3,8.8,5.9,17.1,10.5,24.8c24,10,64.9,10.1,102.3,10.3
					c25.5,0.1,49.3,0.2,68.8,3.1c5-5.8,9.4-12.1,12.9-18.9C1086.9,560.3,1053.1,560.2,1024.6,560L1024.6,560z"/>
				<path class="st6" d="M1030.9,485.1c29.5,0.1,56.6,0.3,77.6,4.7c-3.5-8.7-8.3-16.9-14.2-24.2c-18.1-2.2-41.3-2.3-61.8-2.4
					c-32.6-0.1-67.6-0.3-95.5-7.1c-5.1,4.9-9.7,10.3-13.6,16.2C946.1,484.7,990.6,484.9,1030.9,485.1L1030.9,485.1z"/>
				<path class="st6" d="M1032.6,438.2c9.6,0,19,0.1,28,0.3c-14.7-7.4-31.5-11.7-49.4-11.7c-15.7,0-30.6,3.3-43.9,9.1
					C987.5,438,1010.7,438.1,1032.6,438.2L1032.6,438.2z"/>
				<path class="st6" d="M1022.9,606.9c-23.3-0.1-47.9-0.2-70.2-2.8c16.7,10.6,36.8,16.8,58.5,16.8c19.2,0,37.1-4.9,52.5-13.3
					C1050.3,607,1036,607,1022.9,606.9L1022.9,606.9z"/>
				<path class="st6" d="M1113.1,542.6c1.3-6.1,2-12.3,2-18.8c0-2.1-0.1-4.2-0.2-6.2c-16.3-7.4-53.3-7.6-84.1-7.7
					c-42.5-0.2-88.9-0.4-118.7-15.2c-2.2,6.5-3.6,13.3-4.3,20.3c17.7,19.5,70.1,19.8,117,20C1059.5,535.3,1091.1,535.4,1113.1,542.6
					L1113.1,542.6z"/>
			</g>
		</g>
		<g class="st3">
			<defs>
				<polygon id="SVGID_15_" points="0.3,653.9 1396,653.9 1396,0 0.3,0 0.3,653.9 				"/>
			</defs>
			<clipPath id="SVGID_16_">
				<use xlink:href="#SVGID_15_"  style="overflow:visible;"/>
			</clipPath>
			<g class="st7">
				<defs>
					<polygon id="SVGID_17_" points="0.3,653.9 1396,653.9 1396,0 0.3,0 0.3,653.9 					"/>
				</defs>
				<defs>
					<polygon id="SVGID_18_" points="109.9,28.2 322.2,28.2 322.2,226.5 109.9,226.5 109.9,28.2 					"/>
				</defs>
				<clipPath id="SVGID_19_">
					<use xlink:href="#SVGID_17_"  style="overflow:visible;"/>
				</clipPath>
				<clipPath id="SVGID_20_" class="st8">
					<use xlink:href="#SVGID_18_"  style="overflow:visible;"/>
				</clipPath>
				<g class="st9">
					<defs>
						<polygon id="SVGID_21_" points="109.9,226.5 322.2,226.5 322.2,28.2 109.9,28.2 109.9,226.5 						"/>
					</defs>
					<clipPath id="SVGID_22_">
						<use xlink:href="#SVGID_21_"  style="overflow:visible;"/>
					</clipPath>
					<path class="st10" d="M226.9,161.4c-40.5-0.2-84.5-0.4-114.4-13.2c2.3,8.8,5.9,17.1,10.5,24.8c24,10,64.9,10.1,102.3,10.3
						c25.5,0.1,49.3,0.2,68.8,3.1c5-5.8,9.4-12.1,12.9-18.9C289.3,161.7,255.5,161.6,226.9,161.4L226.9,161.4z"/>
					<path class="st10" d="M233.2,86.4c29.5,0.1,56.6,0.3,77.6,4.7c-3.5-8.7-8.3-16.9-14.2-24.2c-18.1-2.2-41.3-2.3-61.8-2.4
						c-32.6-0.1-67.6-0.3-95.5-7.1c-5.1,4.9-9.7,10.3-13.6,16.2C148.5,86,192.9,86.3,233.2,86.4L233.2,86.4z"/>
					<path class="st10" d="M234.9,39.6c9.6,0,19,0.1,28,0.3c-14.7-7.4-31.5-11.7-49.4-11.7c-15.7,0-30.6,3.3-43.9,9.1
						C189.9,39.4,213,39.5,234.9,39.6L234.9,39.6z"/>
					<path class="st10" d="M225.2,208.3c-23.3-0.1-47.9-0.2-70.2-2.8c16.7,10.6,36.8,16.8,58.5,16.8c19.2,0,37.1-4.9,52.5-13.3
						C252.7,208.4,238.4,208.3,225.2,208.3L225.2,208.3z"/>
					<path class="st10" d="M315.5,144c1.3-6.1,2-12.3,2-18.8c0-2.1-0.1-4.2-0.2-6.2c-16.3-7.4-53.3-7.6-84.1-7.7
						c-42.5-0.2-88.9-0.4-118.7-15.2c-2.2,6.5-3.6,13.3-4.3,20.3c17.7,19.5,70.1,19.8,117,20C261.9,136.7,293.5,136.8,315.5,144
						L315.5,144z"/>
				</g>
			</g>
			<g class="st7">
				<defs>
					<polygon id="SVGID_23_" points="0.3,653.9 1396,653.9 1396,0 0.3,0 0.3,653.9 					"/>
				</defs>
				<clipPath id="SVGID_24_">
					<use xlink:href="#SVGID_23_"  style="overflow:visible;"/>
				</clipPath>
				<g class="st11">
					<defs>
						<polygon id="SVGID_25_" points="0.3,653.9 1396,653.9 1396,0 0.3,0 0.3,653.9 						"/>
					</defs>
					<defs>
						<polygon id="SVGID_26_" points="743.2,14.6 849.3,14.6 849.3,113.8 743.2,113.8 743.2,14.6 						"/>
					</defs>
					<clipPath id="SVGID_27_">
						<use xlink:href="#SVGID_25_"  style="overflow:visible;"/>
					</clipPath>
					<clipPath id="SVGID_28_" class="st12">
						<use xlink:href="#SVGID_26_"  style="overflow:visible;"/>
					</clipPath>
					<g class="st13">
						<defs>
							<polygon id="SVGID_29_" points="743.2,113.8 849.3,113.8 849.3,14.6 743.2,14.6 743.2,113.8 							"/>
						</defs>
						<clipPath id="SVGID_30_">
							<use xlink:href="#SVGID_29_"  style="overflow:visible;"/>
						</clipPath>
						<path class="st14" d="M801.7,81.2c-20.2-0.1-42.2-0.2-57.2-6.6c1.1,4.4,2.9,8.6,5.3,12.4c12,5,32.5,5.1,51.1,5.2
							c12.8,0.1,24.6,0.1,34.4,1.6c2.5-2.9,4.7-6.1,6.4-9.4C832.9,81.4,816,81.3,801.7,81.2L801.7,81.2z"/>
						<path class="st14" d="M804.9,43.7c14.7,0.1,28.3,0.1,38.8,2.3c-1.8-4.4-4.2-8.4-7.1-12.1c-9-1.1-20.7-1.2-30.9-1.2
							c-16.3-0.1-33.8-0.2-47.8-3.5c-2.6,2.5-4.9,5.2-6.8,8.1C762.5,43.5,784.7,43.7,804.9,43.7L804.9,43.7z"/>
						<path class="st14" d="M805.7,20.3c4.8,0,9.5,0,14,0.1c-7.4-3.7-15.8-5.8-24.7-5.8c-7.8,0-15.3,1.6-22,4.5
							C783.2,20.2,794.8,20.3,805.7,20.3L805.7,20.3z"/>
						<path class="st14" d="M800.9,104.7c-11.7-0.1-23.9-0.1-35.1-1.4c8.3,5.3,18.4,8.4,29.2,8.4c9.6,0,18.5-2.4,26.3-6.7
							C814.6,104.7,807.4,104.7,800.9,104.7L800.9,104.7z"/>
						<path class="st14" d="M846,72.5c0.6-3,1-6.2,1-9.4c0-1,0-2.1-0.1-3.1c-8.1-3.7-26.7-3.8-42.1-3.8c-21.2-0.1-44.4-0.2-59.4-7.6
							c-1.1,3.3-1.8,6.7-2.2,10.2c8.8,9.8,35.1,9.9,58.5,10C819.2,68.9,835,68.9,846,72.5L846,72.5z"/>
					</g>
				</g>
				<g class="st11">
					<defs>
						<polygon id="SVGID_31_" points="0.3,653.9 1396,653.9 1396,0 0.3,0 0.3,653.9 						"/>
					</defs>
					<clipPath id="SVGID_32_">
						<use xlink:href="#SVGID_31_"  style="overflow:visible;"/>
					</clipPath>
					<g class="st15">
						<defs>
							<polygon id="SVGID_33_" points="0.3,653.9 1396,653.9 1396,0 0.3,0 0.3,653.9 							"/>
						</defs>
						<defs>
							<polygon id="SVGID_34_" points="233.4,528.8 367.3,528.8 367.3,653.9 233.4,653.9 233.4,528.8 							"/>
						</defs>
						<clipPath id="SVGID_35_">
							<use xlink:href="#SVGID_33_"  style="overflow:visible;"/>
						</clipPath>
						<clipPath id="SVGID_36_" class="st16">
							<use xlink:href="#SVGID_34_"  style="overflow:visible;"/>
						</clipPath>
						<g class="st17">
							<defs>
								<polygon id="SVGID_37_" points="233.4,653.9 367.3,653.9 367.3,528.8 233.4,528.8 233.4,653.9 								"/>
							</defs>
							<clipPath id="SVGID_38_">
								<use xlink:href="#SVGID_37_"  style="overflow:visible;"/>
							</clipPath>
							<path class="st18" d="M307.3,612.8c-25.5-0.1-53.3-0.3-72.1-8.3c1.4,5.5,3.7,10.8,6.6,15.6c15.1,6.3,40.9,6.4,64.5,6.5
								c16.1,0.1,31.1,0.2,43.4,2c3.2-3.6,5.9-7.6,8.1-11.9C346.6,613,325.2,612.9,307.3,612.8L307.3,612.8z"/>
							<path class="st18" d="M311.2,565.6c18.6,0.1,35.7,0.2,48.9,2.9c-2.2-5.5-5.2-10.6-9-15.2c-11.4-1.4-26.1-1.5-39-1.5
								c-20.6-0.1-42.6-0.2-60.3-4.5c-3.2,3.1-6.1,6.5-8.6,10.2C257.8,565.3,285.8,565.4,311.2,565.6L311.2,565.6z"/>
							<path class="st18" d="M312.3,536c6.1,0,12,0.1,17.7,0.2c-9.3-4.7-19.9-7.4-31.2-7.4c-9.9,0-19.3,2.1-27.7,5.7
								C283.9,535.9,298.5,536,312.3,536L312.3,536z"/>
							<path class="st18" d="M306.2,642.4c-14.7-0.1-30.2-0.1-44.3-1.7c10.5,6.7,23.2,10.6,36.9,10.6c12.1,0,23.4-3.1,33.1-8.4
								C323.5,642.5,314.5,642.4,306.2,642.4L306.2,642.4z"/>
							<path class="st18" d="M363.1,601.9c0.8-3.8,1.2-7.8,1.2-11.8c0-1.3-0.1-2.6-0.1-3.9c-10.3-4.6-33.6-4.8-53.1-4.9
								c-26.8-0.1-56-0.3-74.9-9.6c-1.4,4.1-2.3,8.4-2.7,12.8c11.1,12.3,44.2,12.5,73.8,12.6C329.3,597.2,349.2,597.3,363.1,601.9
								L363.1,601.9z"/>
						</g>
					</g>
					<g class="st15">
						<defs>
							<polygon id="SVGID_39_" points="0.3,653.9 1396,653.9 1396,0 0.3,0 0.3,653.9 							"/>
						</defs>
						<clipPath id="SVGID_40_">
							<use xlink:href="#SVGID_39_"  style="overflow:visible;"/>
						</clipPath>
						<g class="st19">
							<defs>
								<polygon id="SVGID_41_" points="0.3,653.9 1396,653.9 1396,0 0.3,0 0.3,653.9 								"/>
							</defs>
							<defs>
								<polygon id="SVGID_42_" points="1031,260.8 1137.6,260.8 1137.6,360.5 1031,360.5 1031,260.8 								"/>
							</defs>
							<clipPath id="SVGID_43_">
								<use xlink:href="#SVGID_41_"  style="overflow:visible;"/>
							</clipPath>
							<clipPath id="SVGID_44_" class="st20">
								<use xlink:href="#SVGID_42_"  style="overflow:visible;"/>
							</clipPath>
							<g class="st21">
								<defs>
									<polygon id="SVGID_45_" points="1031,360.5 1137.6,360.5 1137.6,260.8 1031,260.8 1031,360.5 									"/>
								</defs>
								<clipPath id="SVGID_46_">
									<use xlink:href="#SVGID_45_"  style="overflow:visible;"/>
								</clipPath>
								<path class="st22" d="M1089.8,327.8c-20.3-0.1-42.4-0.2-57.4-6.6c1.1,4.4,2.9,8.6,5.3,12.5c12.1,5,32.6,5.1,51.3,5.2
									c12.8,0.1,24.7,0.1,34.5,1.6c2.5-2.9,4.7-6.1,6.5-9.5C1121.1,328,1104.1,327.9,1089.8,327.8L1089.8,327.8z"/>
								<path class="st22" d="M1093,290.1c14.8,0.1,28.4,0.1,38.9,2.3c-1.8-4.4-4.2-8.5-7.1-12.2c-9.1-1.1-20.7-1.2-31-1.2
									c-16.4-0.1-33.9-0.2-47.9-3.6c-2.6,2.5-4.9,5.2-6.8,8.1C1050.4,289.9,1072.7,290,1093,290.1L1093,290.1z"/>
								<path class="st22" d="M1093.8,266.6c4.8,0,9.5,0,14.1,0.1c-7.4-3.7-15.8-5.9-24.8-5.9c-7.9,0-15.3,1.6-22,4.6
									C1071.2,266.4,1082.8,266.5,1093.8,266.6L1093.8,266.6z"/>
								<path class="st22" d="M1088.9,351.4c-11.7-0.1-24-0.1-35.2-1.4c8.4,5.3,18.5,8.5,29.4,8.5c9.6,0,18.6-2.4,26.3-6.7
									C1102.7,351.4,1095.6,351.4,1088.9,351.4L1088.9,351.4z"/>
								<path class="st22" d="M1134.2,319.1c0.6-3.1,1-6.2,1-9.4c0-1.1,0-2.1-0.1-3.1c-8.2-3.7-26.8-3.8-42.2-3.9
									c-21.3-0.1-44.6-0.2-59.6-7.6c-1.1,3.3-1.8,6.7-2.2,10.2c8.9,9.8,35.2,9.9,58.7,10.1
									C1107.3,315.4,1123.2,315.4,1134.2,319.1L1134.2,319.1z"/>
							</g>
						</g>
						<g class="st19">
							<defs>
								<polygon id="SVGID_47_" points="0.3,653.9 1396,653.9 1396,0 0.3,0 0.3,653.9 								"/>
							</defs>
							<clipPath id="SVGID_48_">
								<use xlink:href="#SVGID_47_"  style="overflow:visible;"/>
							</clipPath>
							<g class="st23">
								<defs>
									<polygon id="SVGID_49_" points="0.3,653.9 1396,653.9 1396,0 0.3,0 0.3,653.9 									"/>
								</defs>
								<defs>
									<polygon id="SVGID_50_" points="0.3,368.7 107,368.7 107,468.4 0.3,468.4 0.3,368.7 									"/>
								</defs>
								<clipPath id="SVGID_51_">
									<use xlink:href="#SVGID_49_"  style="overflow:visible;"/>
								</clipPath>
								<clipPath id="SVGID_52_" class="st24">
									<use xlink:href="#SVGID_50_"  style="overflow:visible;"/>
								</clipPath>
								<g class="st25">
									<defs>
										<polygon id="SVGID_53_" points="0.3,468.4 107,468.4 107,368.7 0.3,368.7 0.3,468.4 										"/>
									</defs>
									<clipPath id="SVGID_54_">
										<use xlink:href="#SVGID_53_"  style="overflow:visible;"/>
									</clipPath>
									<path class="st26" d="M59.1,435.7c-20.3-0.1-42.5-0.2-57.5-6.6c1.1,4.4,2.9,8.6,5.3,12.5c12.1,5,32.6,5.1,51.4,5.2
										c12.8,0.1,24.8,0.1,34.6,1.6c2.5-2.9,4.7-6.1,6.5-9.5C90.5,435.9,73.4,435.8,59.1,435.7L59.1,435.7z"/>
									<path class="st26" d="M62.3,398c14.8,0.1,28.4,0.1,39,2.3c-1.8-4.4-4.2-8.5-7.2-12.2c-9.1-1.1-20.8-1.2-31.1-1.2
										c-16.4-0.1-34-0.2-48-3.6c-2.6,2.5-4.9,5.2-6.9,8.1C19.7,397.8,42,397.9,62.3,398L62.3,398z"/>
									<path class="st26" d="M63.1,374.5c4.8,0,9.6,0,14.1,0.1c-7.4-3.7-15.9-5.9-24.8-5.9c-7.9,0-15.4,1.6-22.1,4.6
										C40.5,374.4,52.1,374.4,63.1,374.5L63.1,374.5z"/>
									<path class="st26" d="M58.3,459.3c-11.7-0.1-24.1-0.1-35.3-1.4c8.4,5.3,18.5,8.5,29.4,8.5c9.6,0,18.6-2.4,26.4-6.7
										C72.1,459.3,64.9,459.3,58.3,459.3L58.3,459.3z"/>
									<path class="st26" d="M103.6,427c0.6-3.1,1-6.2,1-9.4c0-1.1,0-2.1-0.1-3.1c-8.2-3.7-26.8-3.8-42.3-3.9
										c-21.4-0.1-44.7-0.2-59.7-7.6c-1.1,3.3-1.8,6.7-2.2,10.2c8.9,9.8,35.3,9.9,58.8,10.1C76.7,423.3,92.6,423.4,103.6,427
										L103.6,427z"/>
								</g>
							</g>
						</g>
					</g>
				</g>
			</g>
		</g>
	</g>
</g>
</svg>
