<svg viewBox="0 0 512 512" xmlns="http://www.w3.org/2000/svg" xmlns:xlink="http://www.w3.org/1999/xlink" id="Capa_1" overflow="hidden"><g><g><path d="M464 64 448 64 64 64 48 64C21.504 64 0 85.504 0 112L0 128 0 384 0 400C0 426.496 21.504 448 48 448L64 448 448 448 464 448C490.496 448 512 426.496 512 400L512 384 512 128 512 112C512 85.504 490.496 64 464 64ZM407.488 96 256 215.616 104.512 96 407.488 96ZM448 416 64 416 64 148.672 256 296.352 448 148.64 448 416Z" stroke-width="2.42494" fill="#FF0032"/></g></g><g></g><g></g><g></g><g></g><g></g><g></g><g></g><g></g><g></g><g></g><g></g><g></g><g></g><g></g><g></g></svg>