<?xml version="1.0" encoding="utf-8"?>
<!-- Generator: Adobe Illustrator 22.0.1, SVG Export Plug-In . SVG Version: 6.00 Build 0)  -->
<svg version="1.1" id="圖層_1" xmlns="http://www.w3.org/2000/svg" xmlns:xlink="http://www.w3.org/1999/xlink" x="0px" y="0px"
	 viewBox="0 0 646 459" style="enable-background:new 0 0 646 459;" xml:space="preserve">
<style type="text/css">
	.st0{clip-path:url(#SVGID_3_);}
	.st1{clip-path:url(#SVGID_4_);}
	.st2{fill:#264CE2;}
	.st3{fill:#8298EF;}
	.st4{fill:#2965F0;}
	.st5{fill:#FEFEFE;}
	.st6{fill:#EAEAEA;}
</style>
<g>
	<defs>
		<polygon id="SVGID_1_" points="37.7,253.7 524,253.7 524,-5.5 37.7,-5.5 37.7,253.7 		"/>
	</defs>
	<defs>
		<polygon id="SVGID_2_" points="37.7,-5.5 524,-5.5 524,253.7 37.7,253.7 37.7,-5.5 		"/>
	</defs>
	<clipPath id="SVGID_3_">
		<use xlink:href="#SVGID_1_"  style="overflow:visible;"/>
	</clipPath>
	<clipPath id="SVGID_4_" class="st0">
		<use xlink:href="#SVGID_2_"  style="overflow:visible;"/>
	</clipPath>
	<g class="st1">
		<defs>
			<polygon id="SVGID_5_" points="37.7,253.7 524,253.7 524,-5.5 37.7,-5.5 37.7,253.7 			"/>
		</defs>
		<clipPath id="SVGID_6_">
			<use xlink:href="#SVGID_5_"  style="overflow:visible;"/>
		</clipPath>
	</g>
</g>
<g>
	<defs>
		<polygon id="SVGID_7_" points="84,185.1 320.3,185.1 320.3,443.9 84,443.9 84,185.1 		"/>
	</defs>
	<clipPath id="SVGID_8_">
		<use xlink:href="#SVGID_7_"  style="overflow:visible;"/>
	</clipPath>
	<g style="clip-path:url(#SVGID_8_);">
		
			<image style="overflow:visible;" width="1120" height="1186" xlink:href="894AE7F4.png"  transform="matrix(0.211 0 0 0.2182 84 185.093)">
		</image>
	</g>
</g>
<g>
	<path class="st2" d="M353.2,236.4c0-0.1,0-0.2,0-0.3c0.3-0.2,0.5-0.3,0.8-0.3c0.3,0,0.6,0,1,0c59.9,0,119.9,0,179.8,0
		c1.9,0,2,0,1.9,1.9c-0.1,2.1-0.3,4.1-0.5,6.1c-0.3,3.2-0.6,6.4-0.9,9.7c-0.3,3-0.5,6.1-0.8,9.2c-0.3,3.2-0.5,6.3-0.9,9.5
		c-0.3,3.2-0.5,6.3-0.9,9.5c-0.3,3.1-0.5,6.1-0.9,9.3c-0.3,3.2-0.6,6.3-0.9,9.5c-0.3,3.1-0.5,6.1-0.9,9.3c-0.3,3.2-0.6,6.3-0.9,9.5
		c-0.3,3.1-0.5,6.2-0.9,9.4c-0.3,3.8-0.7,7.5-1,11.3c-0.3,3-0.5,6.1-0.8,9.2c-0.3,3.7-0.7,7.5-1,11.3c-0.3,3.2-0.6,6.4-0.9,9.6
		c-0.2,2.4-0.4,4.8-0.7,7.2c-0.3,3.3-0.6,6.5-0.9,9.7c-0.3,3.7-0.7,7.4-1,11.2c-0.3,3-0.5,6.1-0.9,9.2c-0.3,3.2-0.5,6.4-0.9,9.7
		c-0.2,1.7-0.3,3.5-0.4,5.2c-0.1,0.8-0.4,1.2-1.2,1.4c-15.8,4.4-31.7,8.7-47.6,13.2c-8.2,2.3-16.5,4.5-24.6,6.8
		c-1.3,0.3-2.6,0.3-3.9,0c-15.8-4.4-31.6-8.7-47.4-13.2c-8.1-2.3-16-4.5-24.1-6.7c-1.6-0.4-1.6-0.5-1.8-2.3
		c-0.4-5-0.9-10.1-1.3-15.2c-0.3-3.7-0.7-7.4-1-11.2c-0.3-3.6-0.7-7.4-1-11c-0.3-3.1-0.5-6.1-0.8-9.3c-0.3-3.7-0.7-7.4-1-11.1
		c-0.3-3.2-0.5-6.3-0.9-9.5c-0.3-3.2-0.6-6.3-0.9-9.5c-0.3-3-0.5-6.1-0.8-9.2c-0.3-3.2-0.6-6.4-0.9-9.7c-0.3-3.2-0.6-6.3-0.9-9.5
		c-0.2-2.4-0.4-4.8-0.7-7.3c-0.3-3.2-0.6-6.4-0.9-9.7c-0.3-3.7-0.7-7.4-1-11.2c-0.3-3.1-0.5-6.2-0.9-9.4c-0.1-3.7-0.4-7.5-0.8-11.3
		c-0.3-3-0.5-6.1-0.9-9.2c-0.3-3.2-0.6-6.4-0.9-9.7c-0.2-3.2-0.6-6.4-0.7-9.6c0-0.5,0-1-0.2-1.6c0-0.1,0-0.2,0-0.3
		C353.4,237.1,353.4,236.7,353.2,236.4z"/>
	<path d="M457.5,185.2c0,3.2,0,6.4,0,9.5c0,0.6-0.3,0.5-0.7,0.5c-4.9,0-9.8,0-14.7,0c-0.3,0-0.7-0.2-0.8,0.2
		c-0.1,0.6-0.2,1.2,0.1,1.7c0.1,0.2,0.4,0.1,0.6,0.1c4.9,0,9.8,0,14.7,0c0.6,0,0.8,0.1,0.8,0.8c0,7.3,0,14.5,0,21.9
		c0,0.5-0.1,0.7-0.7,0.7c-8.8,0-17.7,0-26.5,0c-0.6,0-0.7-0.2-0.7-0.7c0-3.1,0-6.1,0-9.3c0-0.5,0.2-0.7,0.7-0.7c4.9,0,9.9,0,14.7,0
		c0.7,0,0.8-0.2,0.8-0.8c-0.1-1.2,0-1.2-1.2-1.2c-4.8,0-9.5,0-14.2,0c-0.6,0-0.8-0.2-0.8-0.8c0-7.1,0-14.1,0-21.2
		c0-0.3,0-0.5-0.1-0.9C439,185.2,448.3,185.2,457.5,185.2z"/>
	<path d="M490.9,185.2c0,3.2,0,6.5,0.1,9.7c0,0.6-0.4,0.4-0.7,0.4c-4.8,0-9.6,0-14.5,0c-0.3,0-0.9-0.2-1,0.2c-0.2,0.5-0.1,1.1,0,1.7
		c0,0.3,0.4,0.1,0.6,0.1c2.8,0,5.6,0,8.4,0c2.2,0,4.3,0,6.5,0c0.4,0,0.6,0.1,0.6,0.6c0,7.4,0,14.8,0,22.2c0,0.4-0.2,0.5-0.6,0.5
		c-8.8,0-17.7,0-26.6,0c-0.5,0-0.6-0.2-0.6-0.6c0-3.1,0-6.1,0-9.3c0-0.6,0.1-0.8,0.8-0.8c4.8,0,9.8,0,14.6,0c0.7,0,0.8-0.2,0.8-0.8
		c-0.1-1.2,0-1.2-1.2-1.2c-4.8,0-9.4,0-14.2,0c-0.4,0-0.7,0-0.7-0.6c0-7.3,0-14.5,0-21.8c0-0.1,0-0.3,0.1-0.3
		C472.4,185.2,481.6,185.2,490.9,185.2z"/>
	<path d="M424.2,185.2c0,3.6,0,7.3,0,10.9c0,0.5-0.1,0.7-0.7,0.7c-4.9,0-9.9,0-14.7,0c-0.6,0-0.8,0.1-0.8,0.7c0,3.4,0,6.8,0,10.2
		c0,0.5,0.2,0.7,0.7,0.7c4.9,0,9.9,0,14.8,0c0.5,0,0.7,0.1,0.7,0.7c0,3.4,0,6.8,0,10.2c0,0.5-0.1,0.7-0.7,0.7c-8.8,0-17.7,0-26.4,0
		c-0.6,0-0.7-0.2-0.7-0.7c0-11.1,0-22.3,0-33.3c0-0.3,0-0.5,0-0.9C405.7,185.2,414.9,185.2,424.2,185.2z"/>
	<path class="st3" d="M353.2,236.4c0.2,0.3,0.3,0.6,0,1C353.2,237.1,353.2,236.7,353.2,236.4z"/>
	<path class="st4" d="M445,274.3c0-7.4,0-14.7,0-22c0-0.7,0.2-1,0.9-1c24.4,0,48.8,0,73.3,0c0.7,0,0.8,0.2,0.7,0.8
		c-0.3,3.2-0.5,6.4-0.8,9.6c-0.2,2.3-0.4,4.4-0.6,6.7c-0.3,2.9-0.4,5.7-0.8,8.7c-0.3,2.3-0.4,4.5-0.6,6.8c-0.3,3.1-0.6,6.2-0.9,9.3
		c-0.2,2-0.3,4.1-0.5,6.1c-0.3,2.5-0.5,5.1-0.8,7.6c-0.2,1.4-0.2,2.9-0.3,4.2c-0.2,2-0.4,4-0.6,6c-0.1,1.4-0.2,2.8-0.3,4.2
		c-0.2,2.1-0.4,4.2-0.6,6.2c-0.1,1.3-0.3,2.6-0.3,3.9c-0.2,2.1-0.4,4.2-0.6,6.3c-0.1,1.3-0.2,2.5-0.3,3.8c-0.2,2.2-0.4,4.3-0.6,6.5
		c-0.2,1.9-0.3,3.9-0.5,5.8c-0.2,2-0.4,4.1-0.6,6.1c-0.1,1.3-0.3,2.6-0.3,3.9c-0.2,2.2-0.4,4.4-0.6,6.6c-0.1,1.4-0.2,2.7-0.3,4.1
		c-0.2,2.1-0.4,4.1-0.6,6.1c-0.1,1.3-0.3,2.6-0.3,3.9c-0.2,2.2-0.4,4.2-0.6,6.4c-0.1,1.4-0.2,2.7-0.3,4.1c-0.2,2.1-0.4,4.1-0.6,6.1
		c-0.1,1.3-0.3,2.6-0.3,3.9c-0.2,1.9-0.3,3.9-0.4,5.8c0,0.5-0.4,0.7-0.9,0.9c-2.2,0.6-4.3,1.2-6.5,1.8c-4.8,1.3-9.6,2.7-14.4,4
		c-4.6,1.3-9.2,2.5-13.8,3.8c-4.8,1.3-9.6,2.7-14.4,4c-3.4,1-6.8,1.9-10.2,2.9c-0.6,0.2-0.6-0.1-0.6-0.6c0-7.4,0-14.7,0-22.1
		c0-0.3,0.1-0.7-0.3-1c0.1-0.1,0.1-0.2,0.2-0.2c2.2-0.7,4.4-1.3,6.7-1.9c8.2-2.3,16.5-4.6,24.8-6.8c4.7-1.3,9.3-2.6,13.9-3.8
		c1.5-0.4,1.5-0.3,1.6-1.9c0.3-4.8,0.9-9.7,1.3-14.6c0.3-4.2,0.8-8.5,1.1-12.8c0.5-5.5,1-10.8,1.5-16.3s1-10.8,1.5-16.3
		c0.4-5.1,1-10.2,1.4-15.3s1-10.2,1.4-15.3c0.4-4.8,0.9-9.7,1.3-14.6c0.3-3,0.5-6,0.8-9c0.1-0.8,0-0.8-0.8-0.9c-0.3,0-0.5,0-0.9,0
		c-18,0-35.9,0-53.9,0C445.9,274.5,445.4,274.7,445,274.3z"/>
	<path class="st5" d="M445,274.3c0.3,0,0.7,0,1,0c18.5,0,37,0,55.5,0c1,0,0.9,0,0.8,1c-0.3,3.7-0.7,7.5-1,11.3
		c-0.4,4.9-0.9,9.8-1.3,14.7c-0.3,3.6-0.6,7.3-1,10.9c-0.4,4.9-0.9,9.9-1.3,14.7c-0.3,4.2-0.8,8.4-1.1,12.6
		c-0.4,4.9-0.9,10-1.3,14.9c-0.3,4.2-0.8,8.5-1.1,12.8c-0.4,4.8-0.9,9.7-1.3,14.6c-0.3,3-0.5,6-0.8,9c0,0.5-0.2,0.7-0.7,0.9
		c-11.7,3.2-23.5,6.5-35.2,9.7c-3.6,1-7.3,2-10.9,3c-0.2,0-0.3,0.1-0.4,0.1c-0.3-0.3-0.3-0.7-0.3-1c0-7.3,0-14.5,0-21.8
		c0-0.3,0-0.7,0.3-1v-0.1c0.4-0.3,0.9-0.4,1.4-0.6c7.4-2,14.7-4,22.2-6c1.8-0.5,1.8-0.4,2-2.3c0.3-2.5,0.4-5,0.7-7.5
		c0.2-2.5,0.4-5,0.7-7.5c0.3-3.2,0.6-6.3,0.9-9.5c0.1-0.8,0.2-1.6,0.2-2.3c0-0.5-0.2-0.7-0.6-0.7c-0.3,0-0.5,0-0.8,0
		c-8.4,0-16.8,0-25.2,0c-0.4,0-1,0-1.4-0.2v-0.1c-0.3-0.3-0.3-0.7-0.3-1c0-7,0-13.9,0-21c0-0.3,0-0.7,0.2-1c0.4-0.3,1-0.3,1.5-0.3
		c9,0,18,0,27,0c1.6,0,1.6,0,1.7-1.6c0.3-3.2,0.6-6.5,0.9-9.7c0.3-3.5,0.6-7.2,1-10.7c0.1-0.9-0.1-1-1-1c-5.1,0-10.3,0-15.4,0
		c-4.7,0-9.4,0-14.1,0c-0.5,0-1,0-1.4-0.3c-0.3-0.3-0.2-0.7-0.2-1c0-6.9,0-13.9,0-20.8C444.6,275,444.5,274.5,445,274.3
		C444.9,274.4,444.9,274.4,445,274.3z"/>
	<path class="st6" d="M444.8,380.5c0,8,0,15.8,0,23.8c-0.1,0-0.1,0-0.2,0.1c-4.8-1.3-9.5-2.7-14.3-4c-10.6-2.9-21.3-5.9-31.9-8.8
		c-0.5-0.2-0.7-0.3-0.8-1c-0.4-4.8-0.9-9.7-1.3-14.6c-0.3-3.6-0.6-7.3-1-10.9c-0.3-3.1-0.5-6.1-0.8-9.3c-0.1-0.5,0.1-0.6,0.5-0.6
		c7.3,0,14.5,0,21.8,0c0.4,0,0.6,0.1,0.6,0.6c0.3,3.2,0.6,6.4,0.9,9.7c0.3,2.5,0.4,4.9,0.6,7.4c0,0.5,0.3,0.7,0.8,0.9
		C428.3,376,436.6,378.3,444.8,380.5z"/>
	<path class="st6" d="M444.8,274.4c0,7.6,0,15.2,0,22.9c-0.3,0.2-0.5,0.1-0.8,0.1c-17.9,0-35.9,0-53.9,0c-0.3,0-0.5,0.1-0.8-0.1
		c-0.3-2.6-0.5-5.2-0.8-7.8c-0.4-4.8-0.9-9.7-1.3-14.5c-0.1-0.5,0-0.6,0.5-0.6c19,0,37.8,0,56.8,0
		C444.7,274.4,444.8,274.4,444.8,274.4z"/>
	<path class="st6" d="M444.8,320.9c0,7.6,0,15.2,0,22.9c-0.3,0-0.5,0-0.9,0c-16.5,0-33,0-49.5,0c-0.8,0-1-0.2-1-1
		c-0.4-4.9-0.9-9.9-1.3-14.8c-0.2-2.4-0.4-4.8-0.6-7.2c0.3-0.2,0.5-0.1,0.7-0.1c17.3,0,34.6,0,51.9,0
		C444.4,320.8,444.6,320.7,444.8,320.9z"/>
	<path class="st4" d="M444.8,343.8c3.8,0,7.6,0,11.4,0c5.4,0,10.7,0,16,0c0.7,0,0.8,0.2,0.7,0.8c-0.4,4.2-0.8,8.6-1.1,12.9
		c-0.4,4.8-0.9,9.7-1.3,14.5c-0.2,1.6-0.2,1.6-1.8,2.1c-7.9,2.2-15.8,4.2-23.6,6.4c-0.1,0-0.2,0-0.3,0c0.2-0.3,0.2-0.6,0.2-0.9
		c0-11.6,0-23.3,0-34.9C445,344.4,445.1,344.1,444.8,343.8z"/>
	<path class="st4" d="M444.8,320.9c-0.3,0-0.5,0-0.9,0c-17.2,0-34.4,0-51.6,0c-0.3,0-0.6,0-1,0c0.3-0.3,0.6-0.2,1-0.2
		c17.1,0,34.3,0,51.4,0c1.3,0,1.1,0.2,1.1-1.1c0-7,0-14,0-21c0-1,0-1-1-1c-17.8,0-35.7,0-53.5,0c-0.3,0-0.7,0.1-1-0.2
		c18.3,0,36.5,0,54.8,0c0.2,0,0.3,0,0.5,0c0.3,0,0.6,0,1,0c10.2,0,20.3,0,30.6,0c0.7,0,0.9,0.2,0.8,0.9c-0.4,4.4-0.8,8.8-1.2,13.2
		c-0.3,2.9-0.5,5.8-0.8,8.7c-0.1,0.6-0.3,0.7-0.8,0.7c-9.5,0-19,0-28.6,0C445.4,320.8,445.2,320.9,444.8,320.9z"/>
</g>
<image style="overflow:visible;enable-background:new    ;" width="2071" height="479" xlink:href="894AE7F5.png"  transform="matrix(0.2866 0 0 0.2866 24 34)">
</image>
</svg>
