<?xml version="1.0" encoding="utf-8"?>
<!-- Generator: Adobe Illustrator 22.0.1, SVG Export Plug-In . SVG Version: 6.00 Build 0)  -->
<svg version="1.1" id="圖層_1" xmlns="http://www.w3.org/2000/svg" xmlns:xlink="http://www.w3.org/1999/xlink" x="0px" y="0px"
	 viewBox="0 0 295.1 76.6" style="enable-background:new 0 0 295.1 76.6;" xml:space="preserve">
<style type="text/css">
	.st0{fill-rule:evenodd;clip-rule:evenodd;fill:#C80026;}
	.st1{fill:#FFFFFF;}
</style>
<g>
	<polygon class="st0" points="6.9,18 291.4,18 291.4,60 6.9,60 6.9,6 	"/>
	<path class="st1" d="M31.4,43.5v12.8H26V21.3h10.6c4,0,7,0.9,9.1,2.7c2.1,1.8,3.2,4.5,3.2,7.9c0,3.5-1.3,6.3-3.8,8.4
		c-2.5,2.1-5.6,3.1-9.3,3H31.4z M31.4,25.9V39h3.9c5.2,0,7.8-2.2,7.8-6.7c0-4.3-2.5-6.4-7.5-6.4H31.4z"/>
	<path class="st1" d="M59.2,44c0-4.1,1.2-7.3,3.5-9.7c2.3-2.4,5.5-3.6,9.5-3.6c3.8,0,6.8,1.1,9,3.4c2.2,2.3,3.3,5.4,3.3,9.4
		c0,4-1.2,7.2-3.5,9.6c-2.3,2.4-5.4,3.6-9.3,3.6c-3.8,0-6.9-1.2-9.1-3.5C60.4,51,59.2,47.9,59.2,44z M64.6,43.9c0,2.7,0.7,4.9,2,6.4
		c1.3,1.5,3.1,2.3,5.4,2.3c4.8,0,7.2-3,7.2-8.9c0-2.9-0.6-5-1.8-6.5c-1.2-1.5-3-2.2-5.3-2.2c-2.3,0-4.1,0.8-5.5,2.4
		C65.3,39,64.6,41.1,64.6,43.9z"/>
	<path class="st1" d="M111.2,36.4c-0.8-0.5-1.8-0.8-3.1-0.8c-1.7,0-3.1,0.8-4.2,2.3s-1.6,3.5-1.6,6v12.4h-5.3V31.3h5.3v5h0.1
		c1.2-3.6,3.4-5.4,6.5-5.4c0.9,0,1.7,0.1,2.2,0.3V36.4z"/>
	<path class="st1" d="M134.6,56c-1,0.6-2.4,0.8-4.2,0.8c-4.7,0-7.1-2.6-7.1-7.7V35.5H119v-4.2h4.2v-5.8l5.3-1.6v7.4h6v4.2h-6v12.7
		c0,1.5,0.3,2.7,0.8,3.4c0.5,0.7,1.4,1,2.6,1c0.9,0,1.8-0.3,2.6-0.8V56z"/>
	<path class="st1" d="M159.8,23.7c-0.9-0.4-1.8-0.6-2.7-0.6c-2.7,0-4,1.6-4,4.8v3.4h5.8v4.2h-5.8v20.7h-5.3V35.5h-4.2v-4.2h4.2v-3.7
		c0-2.7,0.8-4.9,2.5-6.5c1.6-1.6,3.7-2.4,6.3-2.4c1.3,0,2.4,0.2,3.3,0.5V23.7z"/>
	<path class="st1" d="M167.9,44c0-4.1,1.2-7.3,3.5-9.7c2.3-2.4,5.5-3.6,9.5-3.6c3.8,0,6.8,1.1,9,3.4c2.2,2.3,3.3,5.4,3.3,9.4
		c0,4-1.2,7.2-3.5,9.6c-2.3,2.4-5.4,3.6-9.3,3.6c-3.8,0-6.9-1.2-9.1-3.5C169,51,167.9,47.9,167.9,44z M173.3,43.9
		c0,2.7,0.7,4.9,2,6.4c1.3,1.5,3.1,2.3,5.4,2.3c4.8,0,7.2-3,7.2-8.9c0-2.9-0.6-5-1.8-6.5c-1.2-1.5-3-2.2-5.3-2.2
		c-2.3,0-4.1,0.8-5.5,2.4C173.9,39,173.3,41.1,173.3,43.9z"/>
	<path class="st1" d="M205.6,56.3V19.4h5.3v36.9H205.6z"/>
	<path class="st1" d="M224.3,22.8c0-0.9,0.3-1.6,0.9-2.2c0.6-0.6,1.4-0.9,2.3-0.9c0.9,0,1.7,0.3,2.3,0.9c0.6,0.6,0.9,1.3,0.9,2.2
		c0,0.9-0.3,1.6-0.9,2.2c-0.6,0.6-1.4,0.9-2.3,0.9c-0.9,0-1.7-0.3-2.3-0.9S224.3,23.6,224.3,22.8z M224.8,56.3V31.3h5.3v24.9H224.8z
		"/>
	<path class="st1" d="M242.4,44c0-4.1,1.2-7.3,3.5-9.7c2.3-2.4,5.5-3.6,9.5-3.6c3.8,0,6.8,1.1,9,3.4c2.2,2.3,3.3,5.4,3.3,9.4
		c0,4-1.2,7.2-3.5,9.6c-2.3,2.4-5.4,3.6-9.3,3.6c-3.8,0-6.9-1.2-9.1-3.5C243.6,51,242.4,47.9,242.4,44z M247.8,43.9
		c0,2.7,0.7,4.9,2,6.4c1.3,1.5,3.1,2.3,5.4,2.3c4.8,0,7.2-3,7.2-8.9c0-2.9-0.6-5-1.8-6.5c-1.2-1.5-3-2.2-5.3-2.2
		c-2.3,0-4.1,0.8-5.5,2.4C248.5,39,247.8,41.1,247.8,43.9z"/>
</g>
</svg>
