<svg width="82" height="65" xmlns="http://www.w3.org/2000/svg" xmlns:xlink="http://www.w3.org/1999/xlink" overflow="hidden"><defs><clipPath id="clip0"><rect x="1001" y="27" width="82" height="65"/></clipPath><clipPath id="clip1"><rect x="1002" y="28" width="81" height="63"/></clipPath><clipPath id="clip2"><rect x="1002" y="28" width="81" height="63"/></clipPath><clipPath id="clip3"><rect x="1002" y="19" width="81" height="81"/></clipPath></defs><g clip-path="url(#clip0)" transform="translate(-1001 -27)"><g clip-path="url(#clip1)"><g clip-path="url(#clip2)"><g clip-path="url(#clip3)"><path d="M71.9772 9.92789 69.4952 9.92789 9.92789 9.92789 7.44592 9.92789C3.33577 9.92789 0 13.2637 0 17.3738L0 19.8558 0 59.5673 0 62.0493C0 66.1595 3.33577 69.4952 7.44592 69.4952L9.92789 69.4952 69.4952 69.4952 71.9772 69.4952C76.0873 69.4952 79.4231 66.1595 79.4231 62.0493L79.4231 59.5673 79.4231 19.8558 79.4231 17.3738C79.4231 13.2637 76.0873 9.92789 71.9772 9.92789ZM63.2109 14.8918 39.7116 33.4471 16.2122 14.8918 63.2109 14.8918ZM69.4952 64.5313 9.92789 64.5313 9.92789 23.0625 39.7116 45.9711 69.4952 23.0575 69.4952 64.5313Z" fill="#FF0032" transform="matrix(1.01985 0 0 1 1002 19.7424)"/></g></g></g></g></svg>