<?xml version="1.0" encoding="utf-8"?>
<!-- Generator: Adobe Illustrator 22.0.1, SVG Export Plug-In . SVG Version: 6.00 Build 0)  -->
<svg version="1.1" id="圖層_1" xmlns="http://www.w3.org/2000/svg" xmlns:xlink="http://www.w3.org/1999/xlink" x="0px" y="0px"
	 viewBox="0 0 213 300" style="enable-background:new 0 0 213 300;" xml:space="preserve">
<style type="text/css">
	.st0{fill:#264CE2;}
	.st1{fill:#8298EF;}
	.st2{fill:#2965F0;}
	.st3{fill:#FEFEFE;}
	.st4{fill:#EAEAEA;}
</style>
<path class="st0" d="M2.2,60.2c0-0.1,0-0.2,0-0.4c0.3-0.2,0.6-0.3,0.9-0.3c0.4,0,0.7,0,1.1,0c69.2,0,138.5,0,207.7,0
	c2.2,0,2.3,0,2.2,2.2c-0.1,2.4-0.4,4.7-0.6,7.1c-0.3,3.7-0.7,7.4-1,11.2c-0.3,3.5-0.6,7.1-0.9,10.6c-0.3,3.7-0.6,7.3-1,11
	c-0.3,3.7-0.6,7.3-1,11c-0.3,3.6-0.6,7.1-1,10.7c-0.3,3.7-0.7,7.3-1,11c-0.3,3.6-0.6,7.1-1,10.7c-0.3,3.7-0.7,7.3-1,11
	c-0.3,3.6-0.6,7.2-1,10.8c-0.4,4.4-0.8,8.7-1.2,13.1c-0.3,3.5-0.6,7.1-0.9,10.6c-0.4,4.3-0.8,8.7-1.2,13c-0.3,3.7-0.7,7.4-1,11.1
	c-0.2,2.8-0.5,5.6-0.8,8.3c-0.3,3.8-0.7,7.5-1,11.2c-0.4,4.3-0.8,8.6-1.2,12.9c-0.3,3.5-0.6,7.1-1,10.6c-0.3,3.7-0.6,7.4-1,11.2
	c-0.2,2-0.3,4-0.5,6c-0.1,0.9-0.5,1.4-1.4,1.6c-18.3,5.1-36.6,10.1-55,15.2c-9.5,2.6-19,5.2-28.4,7.9c-1.5,0.4-3,0.4-4.5,0
	c-18.3-5.1-36.5-10.1-54.8-15.2c-9.3-2.6-18.5-5.2-27.8-7.7c-1.9-0.5-1.9-0.6-2.1-2.6c-0.5-5.8-1-11.7-1.5-17.5
	c-0.4-4.3-0.8-8.6-1.1-12.9c-0.4-4.2-0.8-8.5-1.1-12.7c-0.3-3.6-0.6-7.1-0.9-10.7c-0.4-4.3-0.8-8.6-1.2-12.8c-0.3-3.7-0.6-7.3-1-11
	c-0.3-3.7-0.7-7.3-1-11c-0.3-3.5-0.6-7.1-0.9-10.6c-0.3-3.7-0.7-7.4-1-11.2c-0.3-3.7-0.7-7.3-1-11c-0.2-2.8-0.5-5.6-0.8-8.4
	c-0.3-3.7-0.7-7.4-1-11.2c-0.4-4.3-0.8-8.6-1.2-12.9c-0.3-3.6-0.6-7.2-1-10.8C6,105,5.6,100.6,5.2,96.3c-0.3-3.5-0.6-7.1-1-10.6
	c-0.3-3.7-0.7-7.4-1-11.2C3,70.8,2.5,67.1,2.4,63.4c0-0.6,0-1.2-0.2-1.8c0-0.1,0-0.2,0-0.4C2.4,60.9,2.4,60.5,2.2,60.2z"/>
<path d="M122.7,1c0,3.7,0,7.4,0,11c0,0.7-0.4,0.6-0.8,0.6c-5.7,0-11.3,0-17,0c-0.3,0-0.8-0.2-0.9,0.2c-0.1,0.7-0.2,1.4,0.1,2
	c0.1,0.2,0.5,0.1,0.7,0.1c5.7,0,11.3,0,17,0c0.7,0,0.9,0.1,0.9,0.9c0,8.4,0,16.8,0,25.3c0,0.6-0.1,0.8-0.8,0.8
	c-10.2,0-20.4,0-30.6,0c-0.7,0-0.8-0.2-0.8-0.8c0-3.6,0-7.1,0-10.7c0-0.6,0.2-0.8,0.8-0.8c5.7,0,11.4,0,17,0c0.8,0,0.9-0.2,0.9-0.9
	c-0.1-1.4,0-1.4-1.4-1.4c-5.5,0-11,0-16.4,0c-0.7,0-0.9-0.2-0.9-0.9c0-8.2,0-16.3,0-24.5c0-0.3,0-0.6-0.1-1C101.3,1,112,1,122.7,1z"
	/>
<path d="M161.2,1c0,3.7,0,7.5,0.1,11.2c0,0.7-0.5,0.5-0.8,0.5c-5.6,0-11.1,0-16.7,0c-0.4,0-1-0.2-1.1,0.2c-0.2,0.6-0.1,1.3,0,2
	c0,0.3,0.5,0.1,0.7,0.1c3.2,0,6.5,0,9.7,0c2.5,0,5,0,7.5,0c0.5,0,0.7,0.1,0.7,0.7c0,8.5,0,17.1,0,25.6c0,0.5-0.2,0.6-0.7,0.6
	c-10.2,0-20.5,0-30.7,0c-0.6,0-0.7-0.2-0.7-0.7c0-3.6,0-7.1,0-10.7c0-0.7,0.1-0.9,0.9-0.9c5.6,0,11.3,0,16.9,0
	c0.8,0,0.9-0.2,0.9-0.9c-0.1-1.4,0-1.4-1.4-1.4c-5.5,0-10.9,0-16.4,0c-0.5,0-0.8,0-0.8-0.7c0-8.4,0-16.8,0-25.2c0-0.1,0-0.3,0.1-0.4
	C139.9,1,150.5,1,161.2,1z"/>
<path d="M84.2,1c0,4.2,0,8.4,0,12.6c0,0.6-0.1,0.8-0.8,0.8c-5.7,0-11.4,0-17,0c-0.7,0-0.9,0.1-0.9,0.8c0,3.9,0,7.9,0,11.8
	c0,0.6,0.2,0.8,0.8,0.8c5.7,0,11.4,0,17.1,0c0.6,0,0.8,0.1,0.8,0.8c0,3.9,0,7.9,0,11.8c0,0.6-0.1,0.8-0.8,0.8c-10.2,0-20.4,0-30.5,0
	c-0.7,0-0.8-0.2-0.8-0.8c0-12.8,0-25.7,0-38.5c0-0.3,0-0.6,0-1C62.8,1,73.5,1,84.2,1z"/>
<path class="st1" d="M2.2,60.2c0.2,0.4,0.3,0.7,0,1.1C2.2,60.9,2.2,60.5,2.2,60.2z"/>
<path class="st2" d="M108.2,103.9c0-8.5,0-17,0-25.4c0-0.8,0.2-1.1,1-1.1c28.2,0,56.4,0,84.6,0c0.8,0,0.9,0.2,0.8,0.9
	c-0.3,3.7-0.6,7.4-0.9,11.1c-0.2,2.6-0.5,5.1-0.7,7.7c-0.3,3.3-0.5,6.6-0.9,10c-0.3,2.6-0.5,5.2-0.7,7.9c-0.3,3.6-0.7,7.2-1,10.7
	c-0.2,2.3-0.3,4.7-0.6,7c-0.3,2.9-0.6,5.9-0.9,8.8c-0.2,1.6-0.2,3.3-0.4,4.9c-0.2,2.3-0.5,4.6-0.7,6.9c-0.1,1.6-0.2,3.2-0.4,4.8
	c-0.2,2.4-0.5,4.8-0.7,7.2c-0.1,1.5-0.3,3-0.4,4.5c-0.2,2.4-0.5,4.9-0.7,7.3c-0.1,1.5-0.2,2.9-0.4,4.4c-0.2,2.5-0.5,5-0.7,7.5
	c-0.2,2.2-0.4,4.5-0.6,6.7c-0.2,2.3-0.5,4.7-0.7,7c-0.1,1.5-0.3,3-0.4,4.5c-0.2,2.5-0.5,5.1-0.7,7.6c-0.1,1.6-0.2,3.1-0.4,4.7
	c-0.2,2.4-0.5,4.7-0.7,7.1c-0.1,1.5-0.3,3-0.4,4.5c-0.2,2.5-0.5,4.9-0.7,7.4c-0.1,1.6-0.2,3.1-0.4,4.7c-0.2,2.4-0.5,4.7-0.7,7.1
	c-0.1,1.5-0.3,3-0.4,4.5c-0.2,2.2-0.4,4.5-0.5,6.7c0,0.6-0.5,0.8-1,1c-2.5,0.7-5,1.4-7.5,2.1c-5.5,1.5-11.1,3.1-16.6,4.6
	c-5.3,1.5-10.6,2.9-15.9,4.4c-5.5,1.5-11.1,3.1-16.6,4.6c-3.9,1.1-7.9,2.2-11.8,3.3c-0.7,0.2-0.7-0.1-0.7-0.7c0-8.5,0-17,0-25.5
	c0-0.4,0.1-0.8-0.3-1.1c0.1-0.1,0.1-0.2,0.2-0.2c2.5-0.8,5.1-1.5,7.7-2.2c9.5-2.6,19.1-5.3,28.6-7.9c5.4-1.5,10.7-3,16.1-4.4
	c1.7-0.5,1.7-0.4,1.8-2.2c0.4-5.6,1-11.2,1.5-16.9c0.4-4.9,0.9-9.8,1.3-14.8c0.6-6.3,1.1-12.5,1.7-18.8c0.6-6.3,1.1-12.5,1.7-18.8
	c0.5-5.9,1.1-11.8,1.6-17.7c0.5-5.9,1.1-11.8,1.6-17.7c0.5-5.6,1-11.2,1.5-16.9c0.3-3.5,0.6-6.9,0.9-10.4c0.1-0.9,0-0.9-0.9-1
	c-0.3,0-0.6,0-1,0c-20.8,0-41.5,0-62.3,0C109.3,104.2,108.7,104.4,108.2,103.9z"/>
<path class="st3" d="M108.2,103.9c0.4,0,0.8,0,1.1,0c21.4,0,42.7,0,64.1,0c1.1,0,1,0,0.9,1.1c-0.4,4.3-0.8,8.7-1.2,13
	c-0.5,5.7-1,11.3-1.5,17c-0.4,4.2-0.7,8.4-1.1,12.6c-0.5,5.7-1,11.4-1.5,17c-0.4,4.8-0.9,9.7-1.3,14.5c-0.5,5.7-1,11.5-1.5,17.2
	c-0.4,4.9-0.9,9.8-1.3,14.8c-0.5,5.6-1,11.2-1.5,16.9c-0.3,3.5-0.6,6.9-0.9,10.4c0,0.6-0.2,0.8-0.8,1c-13.5,3.7-27.1,7.5-40.6,11.2
	c-4.2,1.2-8.4,2.3-12.6,3.5c-0.2,0-0.3,0.1-0.5,0.1c-0.3-0.3-0.3-0.8-0.3-1.2c0-8.4,0-16.8,0-25.2c0-0.4,0-0.8,0.3-1.2l0-0.1
	c0.5-0.4,1-0.5,1.6-0.7c8.5-2.3,17-4.6,25.6-6.9c2.1-0.6,2.1-0.5,2.3-2.7c0.3-2.9,0.5-5.8,0.8-8.7c0.2-2.9,0.5-5.8,0.8-8.7
	c0.3-3.7,0.7-7.3,1-11c0.1-0.9,0.2-1.8,0.2-2.7c0-0.6-0.2-0.8-0.7-0.8c-0.3,0-0.6,0-0.9,0c-9.7,0-19.4,0-29.1,0
	c-0.5,0-1.1,0-1.6-0.2l0-0.1c-0.3-0.3-0.3-0.8-0.3-1.2c0-8.1,0-16.1,0-24.2c0-0.4,0-0.8,0.2-1.1c0.5-0.4,1.1-0.3,1.7-0.3
	c10.4,0,20.8,0,31.2,0c1.9,0,1.8,0,2-1.8c0.3-3.7,0.7-7.5,1-11.2c0.4-4.1,0.7-8.3,1.1-12.4c0.1-1-0.1-1.2-1.2-1.2
	c-5.9,0-11.9,0-17.8,0c-5.4,0-10.9,0-16.3,0c-0.6,0-1.1,0-1.6-0.3c-0.3-0.4-0.2-0.8-0.2-1.2c0-8,0-16,0-24c0-0.4-0.1-0.9,0.3-1.2
	C108.1,104,108.1,104,108.2,103.9z"/>
<path class="st4" d="M108,226.6c0,9.2,0,18.3,0,27.5c-0.1,0-0.1,0-0.2,0.1c-5.5-1.5-11-3.1-16.5-4.6c-12.3-3.4-24.6-6.8-36.9-10.2
	c-0.6-0.2-0.8-0.4-0.9-1.1c-0.5-5.6-1-11.2-1.5-16.9c-0.4-4.2-0.7-8.4-1.1-12.6c-0.3-3.6-0.6-7.1-0.9-10.7c-0.1-0.6,0.1-0.7,0.6-0.7
	c8.4,0,16.8,0,25.2,0c0.5,0,0.7,0.1,0.7,0.7c0.3,3.7,0.7,7.4,1,11.2c0.3,2.9,0.5,5.7,0.7,8.6c0,0.6,0.4,0.8,0.9,1
	C88.9,221.4,98.5,224,108,226.6z"/>
<path class="st4" d="M108,104c0,8.8,0,17.6,0,26.4c-0.3,0.2-0.6,0.1-0.9,0.1c-20.7,0-41.5,0-62.2,0c-0.3,0-0.6,0.1-0.9-0.1
	c-0.3-3-0.6-6-0.9-9c-0.5-5.6-1-11.2-1.5-16.8c-0.1-0.6,0-0.7,0.6-0.7c21.9,0,43.7,0,65.6,0C107.9,104,108,104,108,104z"/>
<path class="st4" d="M108,157.7c0,8.8,0,17.6,0,26.4c-0.3,0-0.6,0-1,0c-19.1,0-38.1,0-57.2,0c-0.9,0-1.1-0.2-1.2-1.1
	c-0.5-5.7-1-11.4-1.5-17.1c-0.2-2.8-0.5-5.5-0.7-8.3c0.3-0.2,0.6-0.1,0.8-0.1c20,0,40,0,59.9,0C107.5,157.6,107.8,157.5,108,157.7z"
	/>
<path class="st2" d="M108,184.2c4.4,0,8.8,0,13.2,0c6.2,0,12.4,0,18.5,0c0.8,0,0.9,0.2,0.8,0.9c-0.5,4.9-0.9,9.9-1.3,14.9
	c-0.5,5.6-1,11.2-1.5,16.8c-0.2,1.9-0.2,1.9-2.1,2.4c-9.1,2.5-18.2,4.9-27.3,7.4c-0.1,0-0.2,0-0.3,0c0.2-0.3,0.2-0.7,0.2-1
	c0-13.4,0-26.9,0-40.3C108.2,184.9,108.3,184.5,108,184.2z"/>
<path class="st2" d="M108,157.7c-0.3,0-0.6,0-1,0c-19.9,0-39.7,0-59.6,0c-0.4,0-0.7,0-1.1,0c0.3-0.4,0.7-0.2,1.1-0.2
	c19.8,0,39.6,0,59.4,0c1.5,0,1.3,0.2,1.3-1.3c0-8.1,0-16.2,0-24.3c0-1.2,0-1.2-1.2-1.2c-20.6,0-41.2,0-61.8,0
	c-0.4,0-0.8,0.1-1.1-0.2c21.1,0,42.2,0,63.3,0c0.2,0,0.4,0,0.6,0c0.4,0,0.7,0,1.1,0c11.8,0,23.5,0,35.3,0c0.8,0,1,0.2,0.9,1
	c-0.5,5.1-0.9,10.2-1.4,15.3c-0.3,3.4-0.6,6.7-0.9,10.1c-0.1,0.7-0.3,0.8-0.9,0.8c-11,0-22,0-33,0
	C108.7,157.6,108.4,157.7,108,157.7z"/>
</svg>
