<?xml version="1.0" encoding="utf-8"?>
<!-- Generator: Adobe Illustrator 22.0.1, SVG Export Plug-In . SVG Version: 6.00 Build 0)  -->
<svg version="1.1" id="圖層_1" xmlns="http://www.w3.org/2000/svg" xmlns:xlink="http://www.w3.org/1999/xlink" x="0px" y="0px"
	 viewBox="0 0 302.5 424.9" style="enable-background:new 0 0 302.5 424.9;" xml:space="preserve">
<style type="text/css">
	.st0{fill:#264CE2;}
	.st1{fill:#8298EF;}
	.st2{fill:#2965F0;}
	.st3{fill:#FEFEFE;}
	.st4{fill:#EAEAEA;}
</style>
<title>NTDWebMark4</title>
<path class="st0" d="M6.1,88.1v-0.6c0.4-0.2,0.8-0.3,1.3-0.3H293c3,0,3.2,0,3,3c-0.1,3.3-0.5,6.4-0.8,9.7
	c-0.4,5.1-0.9,10.1-1.4,15.3c-0.4,4.7-0.8,9.7-1.2,14.5c-0.4,5.1-0.8,10-1.4,15c-0.6,5.1-0.8,10-1.4,15.1s-0.8,9.7-1.4,14.6
	c-0.6,4.9-1,10-1.4,15.1s-0.8,9.7-1.4,14.6s-1,10-1.4,15c-0.4,5.1-0.8,9.9-1.4,14.8c-0.6,6-1.1,11.9-1.6,17.9
	c-0.4,4.7-0.8,9.7-1.2,14.5c-0.6,5.9-1.1,11.9-1.6,17.8c-0.4,5.1-1,10.1-1.4,15.2c-0.3,3.8-0.7,7.7-1.1,11.4
	c-0.4,5.2-1,10.3-1.4,15.3c-0.5,5.9-1.1,11.8-1.6,17.6c-0.4,4.7-0.8,9.7-1.4,14.5c-0.4,5.1-0.8,10.1-1.4,15.3
	c-0.3,2.7-0.4,5.5-0.7,8.2c0,1.1-0.8,2-1.9,2.2c-25,7-50.1,13.8-75.2,20.8c-13,3.6-26,7.1-38.9,10.8c-2,0.6-4.1,0.6-6.2,0
	c-25-7-49.9-13.8-75-20.8c-12.7-3.6-25.3-7.1-38-10.5c-2.6-0.7-2.6-0.8-2.9-3.6c-0.7-7.9-1.4-16-2-23.9c-0.6-5.9-1.1-11.8-1.6-17.6
	c-0.5-5.9-1.1-11.6-1.5-17.4c-0.4-4.9-0.8-9.7-1.2-14.6c-0.5-5.9-1.1-11.8-1.6-17.5c-0.4-5.1-0.8-10-1.4-15.1c-0.5-5.1-1-10-1.4-15
	c-0.4-4.7-0.8-9.7-1.2-14.5c-0.4-5.1-0.9-10.1-1.4-15.3s-1-10-1.4-15c-0.3-3.8-0.7-7.7-1.1-11.5c-0.4-5.1-1-10.1-1.4-15.3L13,170.1
	c-0.4-4.9-0.8-9.8-1.4-14.8c-0.1-5.9-0.7-11.9-1.2-17.8c-0.4-4.7-0.8-9.7-1.4-14.5C8.6,118,8.1,113,7.7,107.8
	c-0.4-5.2-1-10.1-1.1-15.2c0-0.8,0-1.7-0.3-2.5v-0.6C6.6,89.1,6.5,88.5,6.1,88.1z"/>
<path d="M170.9,7.1v15c0,1-0.5,0.8-1.1,0.8h-23.3c-0.4,0-1.1-0.3-1.2,0.3c-0.2,0.9-0.2,1.9,0.1,2.7c0.1,0.3,0.7,0.1,1,0.1h23.2
	c1,0,1.2,0.1,1.2,1.2V62c0,0.8-0.1,1.1-1.1,1.1H128c-1,0-1.1-0.3-1.1-1.1V47.3c0-0.8,0.3-1.1,1.1-1.1h23.3c1.1,0,1.2-0.3,1.2-1.2
	c-0.1-1.9,0-1.9-1.9-1.9h-22.4c-0.9,0-1.2-0.3-1.2-1.2V8.4c0-0.5,0-0.9-0.1-1.4C141.7,7.1,156.3,7.1,170.9,7.1z"/>
<path d="M223.6,7.1c0,5.1,0,10.3,0.1,15.3c0,0.9-0.7,0.7-1.1,0.7h-22.8c-0.5,0-1.4-0.3-1.5,0.3c-0.2,0.9-0.2,1.8,0,2.7
	c0,0.4,0.7,0.1,1,0.1h23.5c0.7,0,1,0.1,1,1v35c0,0.7-0.3,0.8-1,0.8h-42c-0.8,0-1-0.3-1-0.9V47.5c0-0.9,0.1-1.2,1.2-1.2h23.1
	c1.1,0,1.2-0.3,1.2-1.2c-0.1-1.9,0-1.9-1.9-1.9h-22.4c-0.7,0-1.1,0-1.1-1V7.7c0-0.2,0-0.4,0.1-0.6L223.6,7.1z"/>
<path d="M118.3,7.1v17.2c0,0.8-0.1,1.1-1.1,1.1H93.9c-1,0-1.2,0.1-1.2,1.1v16.1c0,0.8,0.3,1.1,1.1,1.1h23.4c0.8,0,1.1,0.1,1.1,1.1
	V61c0,0.8-0.1,1.1-1.1,1.1H75.4c-1,0-1.1-0.3-1.1-1.1V7C89,7.1,103.6,7.1,118.3,7.1z"/>
<path class="st1" d="M6.1,88.1c0.3,0.4,0.3,1.1,0,1.5V88.1z"/>
<path class="st2" d="M151.1,147.9v-34.8c0-1.1,0.3-1.5,1.4-1.5h115.7c1.1,0,1.2,0.3,1.1,1.2l-1.2,15.2c-0.3,3.6-0.7,7-1,10.5
	c-0.4,4.5-0.7,9-1.2,13.7c-0.4,3.6-0.7,7.1-0.9,10.8c-0.4,4.9-1,9.9-1.4,14.6c-0.3,3.2-0.4,6.4-0.8,9.6c-0.4,4-0.8,8.1-1.2,12
	c-0.3,2.2-0.3,4.5-0.5,6.7c-0.3,3.2-0.7,6.3-1,9.5c-0.1,2.2-0.3,4.4-0.6,6.6c-0.3,3.3-0.7,6.6-0.9,9.9c-0.1,2.1-0.4,4.1-0.6,6.1
	c-0.3,3.3-0.7,6.7-0.9,10c-0.1,2.1-0.3,4-0.6,6c-0.3,3.4-0.7,6.8-1,10.3c-0.3,3-0.5,6.1-0.8,9.2c-0.3,3-0.7,6.4-0.9,9.6
	c-0.1,2.1-0.4,4.1-0.6,6.2c-0.3,3.4-0.7,7-1,10.4c-0.1,2.2-0.3,4.2-0.5,6.4c-0.3,3.3-0.7,6.4-1,9.7c-0.1,2.1-0.4,4.1-0.5,6.2
	c-0.3,3.4-0.7,6.7-1,10.1c-0.1,2.2-0.3,4.2-0.6,6.4c-0.3,3.3-0.7,6.4-0.9,9.7c-0.1,2.1-0.4,4.1-0.6,6.2c-0.3,3-0.5,6.2-0.7,9.2
	c0,0.8-0.7,1.1-1.4,1.4l-10.2,2.8c-7.5,2.1-15.2,4.3-22.7,6.3c-7.3,2.1-14.5,4-21.8,6c-7.5,2.1-15.2,4.2-22.7,6.3
	c-5.3,1.5-10.8,3-16.1,4.5c-1,0.3-1-0.1-1-1V355c0-0.5,0.1-1.1-0.4-1.6c0.1-0.1,0.1-0.3,0.3-0.3c3.4-1.1,7-2.1,10.5-3
	c13-3.6,26.1-7.3,39.1-10.8c7.4-2.1,14.6-4.1,22-6c2.3-0.7,2.3-0.5,2.4-3c0.6-7.7,1.4-15.3,2.1-23.1c0.6-6.7,1.2-13.4,1.8-20.2
	c0.8-8.6,1.6-17.1,2.3-25.7c0.7-8.6,1.6-17.1,2.3-25.7c0.7-8.1,1.6-16.1,2.2-24.2c0.6-8.1,1.5-16.1,2.2-24.2
	c0.7-7.7,1.4-15.3,2.1-23.1c0.4-4.7,0.8-9.5,1.2-14.2c0.1-1.2,0-1.2-1.2-1.4h-86.6C152.6,148.3,151.8,148.6,151.1,147.9z"/>
<path class="st3" d="M151.1,147.9h89.2c1.6,0,1.4,0,1.2,1.6c-0.6,5.9-1.1,11.9-1.6,17.8c-0.7,7.8-1.4,15.5-2.1,23.3
	c-0.5,5.8-0.9,11.5-1.6,17.2c-0.7,7.8-1.4,15.6-2.1,23.3c-0.5,6.6-1.2,13.3-1.8,19.8c-0.7,7.8-1.4,15.7-2.1,23.5
	c-0.6,6.7-1.2,13.4-1.8,20.2c-0.7,7.7-1.4,15.3-2.1,23.1c-0.4,4.7-0.8,9.5-1.2,14.2c0,0.8-0.3,1.1-1.1,1.4
	c-18.5,5.1-37.1,10.3-55.5,15.3c-5.8,1.6-11.5,3.2-17.2,4.7c-0.3,0-0.4,0.1-0.7,0.1c-0.3-0.5-0.5-1-0.4-1.6v-34.5
	c0-0.6,0.1-1.1,0.4-1.6v-0.1c0.7-0.5,1.4-0.8,2.2-1c11.6-3.2,23.3-6.3,35-9.5c2.9-0.8,2.9-0.7,3.2-3.7c0.4-4,0.7-7.9,1.1-11.9
	c0.4-4,0.7-7.9,1.1-11.9c0.4-5.1,1-10,1.4-15c0.2-1.2,0.2-2.5,0.3-3.7c0-0.8-0.3-1.1-0.9-1.1H153c-0.7,0-1.5-0.1-2.2-0.3v-0.1
	c-0.3-0.5-0.5-1-0.4-1.6v-33.2c-0.1-0.5,0-1.1,0.3-1.6c0.7-0.4,1.5-0.6,2.3-0.4h42.7c2.6,0,2.4,0,2.7-2.5c0.4-5.1,0.9-10.3,1.4-15.3
	c0.6-5.6,1-11.4,1.6-17c0.1-1.4-0.1-1.6-1.6-1.6H153c-0.8,0.1-1.5-0.1-2.2-0.4c-0.3-0.5-0.4-1-0.3-1.6v-32.9c0-0.5-0.1-1.2,0.4-1.6
	C151,148.1,151,148.1,151.1,147.9z"/>
<path class="st4" d="M150.8,315.8v37.6c-0.1,0-0.1,0-0.3,0.1c-7.5-2.1-15-4.2-22.6-6.3l-50.6-14c-0.7-0.2-1.3-0.8-1.2-1.6
	c-0.7-7.7-1.4-15.3-2.1-23.1c-0.6-5.8-1-11.5-1.5-17.2c-0.4-4.9-0.8-9.7-1.2-14.6c-0.1-0.8,0.1-1,0.8-1h34.5c0.7,0,0.9,0.1,0.9,1
	c0.4,5.1,1,10.1,1.4,15.3c0.4,4,0.7,7.8,0.9,11.8c0,0.8,0.6,1.1,1.2,1.4C124.7,308.7,137.8,312.2,150.8,315.8z"/>
<path class="st4" d="M150.8,148.1v36.1c-0.4,0.2-0.8,0.2-1.2,0.1H64.5c-0.4,0.1-0.8,0-1.2-0.1L62,171.9l-2.1-23c-0.1-0.8,0-1,0.8-1
	h89.7C150.6,148,150.7,148,150.8,148.1z"/>
<path class="st4" d="M150.8,221.6v36.1H71.2c-1.2,0-1.6-0.3-1.6-1.5l-2.1-23.4c-0.3-3.8-0.7-7.5-1-11.4c0.3-0.2,0.7-0.2,1.1-0.1
	h81.9C150.1,221.4,150.5,221.2,150.8,221.6z"/>
<path class="st2" d="M150.8,257.8h43.4c1.1,0,1.2,0.3,1.1,1.2c-0.7,6.7-1.2,13.5-1.8,20.4l-2.1,23c-0.3,2.6-0.3,2.6-2.9,3.3
	c-12.5,3.4-24.9,6.7-37.3,10.1h-0.4c0.2-0.4,0.3-0.9,0.3-1.4v-55.1C151.1,258.7,151.2,258.2,150.8,257.8z"/>
<path class="st2" d="M150.8,221.6H66.4c0.4-0.6,1-0.3,1.6-0.3h81.3c2.1,0,1.8,0.3,1.8-1.8v-33.2c0-1.6,0-1.6-1.6-1.6H64.8
	c-0.5,0-1.1,0.1-1.5-0.3h137.2c1.1,0,1.4,0.3,1.2,1.4c-0.7,7-1.2,14-1.9,20.9c-0.4,4.6-0.8,9.2-1.2,13.8c-0.1,1-0.4,1.1-1.2,1.1
	h-45.1C151.7,221.6,151.3,221.5,150.8,221.6z"/>
</svg>
