<svg id="Capa_1" data-name="Capa 1" xmlns="http://www.w3.org/2000/svg" viewBox="0 0 438.54 438.54"><defs><style>.cls-1{fill:#fff;}</style></defs><title>githubwhite2</title><path class="cls-1" d="M158.17,352.6q-4.57.86-4,4.28c.38,2.28,2.1,3.05,5.14,2.28s4.38-2.09,4-4C162.93,353.07,161.22,352.22,158.17,352.6Z"/><path class="cls-1" d="M141.9,354.89q-4.58,0-4.57,3.13c0,2.48,1.62,3.52,4.85,3.14q4.57,0,4.57-3.14C146.75,355.55,145.13,354.5,141.9,354.89Z"/><path class="cls-1" d="M119.63,354c-.76,2.1.48,3.52,3.71,4.29q4.27,1.69,5.42-1.72.87-3.13-3.71-4.57C122.2,351.27,120.39,351.92,119.63,354Z"/><path class="cls-1" d="M414.41,24.12Q390.29,0,356.31,0H82.22q-34,0-58.1,24.12T0,82.22V356.31q0,34,24.12,58.1t58.1,24.13h64a77,77,0,0,0,9.42-.43q3.14-.42,6.28-3.71t3.14-9.57q0-.84-.15-19.41T164.73,376l-6.57,1.14a84.46,84.46,0,0,1-15.84,1,122.3,122.3,0,0,1-19.85-2,44.46,44.46,0,0,1-19.12-8.56A36.21,36.21,0,0,1,90.79,350l-2.86-6.57a71.54,71.54,0,0,0-9-14.56q-6.15-8-12.42-10.85l-2-1.42a21.31,21.31,0,0,1-3.71-3.43,15.94,15.94,0,0,1-2.57-4c-.57-1.34-.1-2.43,1.43-3.29S64,304.63,68,304.63l5.7.86q5.71,1.14,14.14,6.85a46.08,46.08,0,0,1,13.85,14.84Q108.2,338.9,117.48,345t18.7,6.15a80.88,80.88,0,0,0,16.27-1.43,56.26,56.26,0,0,0,12.85-4.29q2.56-19.12,14-29.41A194.81,194.81,0,0,1,150,310.9a116.49,116.49,0,0,1-26.83-11.13,76.87,76.87,0,0,1-23-19.13q-9.14-11.43-15-30t-5.86-42.83q0-34.54,22.56-58.81-10.56-26,2-58.24,8.28-2.58,24.55,3.85t23.84,11q7.58,4.56,12.14,7.71a206.22,206.22,0,0,1,109.64,0l10.85-6.85A153.22,153.22,0,0,1,311.2,93.92q15.14-5.72,23.13-3.14Q347.17,123,336.61,149q22.56,24.27,22.56,58.81,0,24.27-5.85,43t-15.13,30a79.89,79.89,0,0,1-23.13,19,116.19,116.19,0,0,1-26.84,11.13A194.37,194.37,0,0,1,259,316.05q14.84,12.84,14.84,40.54v68.24a18.43,18.43,0,0,0,1.42,7.85,7.92,7.92,0,0,0,4.58,4.14,25.18,25.18,0,0,0,5.57,1.42,64.15,64.15,0,0,0,7,.29h63.95q34,0,58.1-24.13t24.13-58.1V82.22Q438.53,48.26,414.41,24.12Z"/><path class="cls-1" d="M86.79,319.2c-1.33.94-1.14,2.47.57,4.56,1.91,1.9,3.43,2.19,4.57.85,1.34-.94,1.15-2.47-.57-4.56C89.46,318.34,87.94,318.05,86.79,319.2Z"/><path class="cls-1" d="M77.37,312.06c-.57,1.33.1,2.48,2,3.42,1.52,1,2.77.77,3.71-.56.57-1.34-.09-2.48-2-3.44C79.18,310.91,77.94,311.1,77.37,312.06Z"/><path class="cls-1" d="M95.65,330.33c-1.72.95-1.72,2.67,0,5.14s3.32,3.14,4.85,2q2.56-2,0-5.43C99,329.57,97.36,329,95.65,330.33Z"/><path class="cls-1" d="M105.64,343.17c-1.71,1.53-1.33,3.33,1.14,5.43,2.28,2.28,4.19,2.57,5.71.85,1.52-1.52,1.14-3.32-1.14-5.42C109.07,341.75,107.16,341.46,105.64,343.17Z"/></svg>